<svg width="21" height="21" viewBox="0 0 21 21" fill="none" xmlns="http://www.w3.org/2000/svg">
<g clip-path="url(#clip0_1_666)">
<path d="M3.30832 0.543945C3.32139 0.543945 3.33445 0.543945 3.34811 0.543945C3.36889 0.568884 3.38729 0.596197 3.41045 0.61876C5.77959 2.98849 8.14873 5.35763 10.5185 7.72677C10.5541 7.7624 10.5951 7.79327 10.6366 7.8289C10.6835 7.78437 10.7227 7.74933 10.7595 7.71252C13.1192 5.35288 15.4794 2.99324 17.839 0.633011C17.8664 0.605697 17.8895 0.573634 17.915 0.543945C17.9281 0.543945 17.9412 0.543945 17.9548 0.543945C17.9815 0.579571 18.0047 0.619354 18.0362 0.650824C18.9096 1.52545 19.7836 2.40007 20.6589 3.2735C20.6903 3.30497 20.7295 3.32813 20.7657 3.35485V3.39463C20.7408 3.41541 20.7135 3.43382 20.6909 3.45698C18.3212 5.82612 15.952 8.19526 13.5829 10.565C13.5473 10.6006 13.5164 10.6416 13.4802 10.6831C13.5247 10.7301 13.5597 10.7692 13.5966 10.8061C15.9562 13.1663 18.3164 15.5265 20.6767 17.8862C20.704 17.9135 20.736 17.9366 20.7657 17.9622V18.0019C20.7301 18.0287 20.6903 18.0518 20.6589 18.0833C19.7842 18.9567 18.9096 19.8308 18.0362 20.706C18.0047 20.7374 17.9815 20.7766 17.9548 20.8129H17.915C17.8943 20.7879 17.8759 20.7606 17.8527 20.738C15.4836 18.3683 13.1144 15.9992 10.7447 13.63C10.7091 13.5944 10.6681 13.5635 10.6265 13.5279C10.5796 13.5724 10.5404 13.6075 10.5036 13.6443C8.14339 16.0039 5.78315 18.3641 3.42351 20.7244C3.3962 20.7517 3.37304 20.7838 3.34751 20.8134H3.30773C3.28101 20.7778 3.25785 20.738 3.22638 20.7066C2.35295 19.8319 1.47892 18.9573 0.603705 18.0839C0.572235 18.0524 0.533046 18.0293 0.496826 18.0025C0.496826 17.9895 0.496826 17.9764 0.496826 17.9628C0.521764 17.942 0.549078 17.9236 0.571641 17.9004C2.94137 15.5313 5.31051 13.1621 7.67965 10.7924C7.71528 10.7568 7.74615 10.7158 7.78237 10.6742C7.73784 10.6273 7.70281 10.5881 7.666 10.5513C5.30695 8.18991 2.94731 5.82968 0.587079 3.47004C0.559766 3.44273 0.527702 3.41957 0.498014 3.39404C0.498014 3.38097 0.498014 3.36791 0.498014 3.35426C0.53364 3.32754 0.573422 3.30438 0.604892 3.27291C1.47951 2.39947 2.35354 1.52545 3.22698 0.650824C3.25845 0.619354 3.2816 0.579571 3.30832 0.543945Z" fill="black"/>
</g>
<defs>
<clipPath id="clip0_1_666">
<rect width="20.2671" height="20.2671" fill="white" transform="translate(0.498047 0.543945)"/>
</clipPath>
</defs>
</svg>
