<svg width="22" height="21" viewBox="0 0 22 21" fill="none" xmlns="http://www.w3.org/2000/svg">
<g clip-path="url(#clip0_1_684)">
<path d="M3.58762 0.633789C3.60068 0.633789 3.61375 0.633789 3.6274 0.633789C3.64818 0.658727 3.66659 0.686041 3.68975 0.708604C6.05889 3.07834 8.42803 5.44748 10.7978 7.81662C10.8334 7.85224 10.8744 7.88312 10.9159 7.91874C10.9628 7.87421 11.002 7.83918 11.0388 7.80236C13.3985 5.44273 15.7587 3.08309 18.1183 0.722854C18.1457 0.695541 18.1688 0.663478 18.1943 0.633789C18.2074 0.633789 18.2205 0.633789 18.2341 0.633789C18.2608 0.669415 18.284 0.709198 18.3155 0.740668C19.1889 1.61529 20.0629 2.48991 20.9381 3.36335C20.9696 3.39482 21.0088 3.41797 21.045 3.44469V3.48447C21.0201 3.50526 20.9928 3.52366 20.9702 3.54682C18.6005 5.91596 16.2313 8.2851 13.8622 10.6548C13.8266 10.6905 13.7957 10.7314 13.7595 10.773C13.804 10.8199 13.839 10.8591 13.8759 10.8959C16.2355 13.2561 18.5957 15.6164 20.956 17.976C20.9833 18.0033 21.0153 18.0265 21.045 18.052V18.0918C21.0094 18.1185 20.9696 18.1417 20.9381 18.1731C20.0635 19.0466 19.1889 19.9206 18.3155 20.7958C18.284 20.8273 18.2608 20.8665 18.2341 20.9027H18.1943C18.1736 20.8778 18.1552 20.8504 18.132 20.8279C15.7629 18.4581 13.3937 16.089 11.024 13.7199C10.9884 13.6842 10.9474 13.6534 10.9058 13.6177C10.8589 13.6623 10.8197 13.6973 10.7829 13.7341C8.42268 16.0938 6.06245 18.454 3.70281 20.8142C3.6755 20.8415 3.65234 20.8736 3.62681 20.9033H3.58703C3.56031 20.8677 3.53715 20.8279 3.50568 20.7964C2.63225 19.9218 1.75822 19.0472 0.883001 18.1737C0.851532 18.1423 0.812343 18.1191 0.776123 18.0924C0.776123 18.0793 0.776123 18.0663 0.776123 18.0526C0.801061 18.0318 0.828375 18.0134 0.850938 17.9903C3.22067 15.6211 5.58981 13.252 7.95895 10.8822C7.99457 10.8466 8.02545 10.8056 8.06167 10.7641C8.01714 10.7172 7.98211 10.678 7.94529 10.6412C5.58625 8.27975 3.22661 5.91952 0.866376 3.55988C0.839063 3.53257 0.806999 3.50941 0.777311 3.48388C0.777311 3.47082 0.777311 3.45776 0.777311 3.4441C0.812937 3.41738 0.852719 3.39422 0.884189 3.36275C1.75881 2.48932 2.63284 1.61529 3.50627 0.740668C3.53774 0.709198 3.5609 0.669415 3.58762 0.633789Z" fill="black"/>
</g>
<defs>
<clipPath id="clip0_1_684">
<rect width="20.2671" height="20.2671" fill="white" transform="translate(0.777344 0.633789)"/>
</clipPath>
</defs>
</svg>
