<svg width="22" height="21" viewBox="0 0 22 21" fill="none" xmlns="http://www.w3.org/2000/svg">
<g clip-path="url(#clip0_1_693)">
<path d="M3.58762 0.027832C3.60068 0.027832 3.61375 0.027832 3.6274 0.027832C3.64818 0.0527703 3.66659 0.0800837 3.68975 0.102647C6.05889 2.47238 8.42803 4.84152 10.7978 7.21066C10.8334 7.24628 10.8744 7.27716 10.9159 7.31279C10.9628 7.26825 11.002 7.23322 11.0388 7.19641C13.3985 4.83677 15.7587 2.47713 18.1183 0.116897C18.1457 0.089584 18.1688 0.0575205 18.1943 0.027832C18.2074 0.027832 18.2205 0.027832 18.2341 0.027832C18.2608 0.0634582 18.284 0.103241 18.3155 0.13471C19.1889 1.00933 20.0629 1.88395 20.9381 2.75739C20.9696 2.78886 21.0088 2.81202 21.045 2.83874V2.87852C21.0201 2.8993 20.9928 2.91771 20.9702 2.94086C18.6005 5.31 16.2313 7.67914 13.8622 10.0489C13.8266 10.0845 13.7957 10.1255 13.7595 10.167C13.804 10.2139 13.839 10.2531 13.8759 10.2899C16.2355 12.6502 18.5957 15.0104 20.956 17.37C20.9833 17.3974 21.0153 17.4205 21.045 17.4461V17.4858C21.0094 17.5126 20.9696 17.5357 20.9381 17.5672C20.0635 18.4406 19.1889 19.3146 18.3155 20.1899C18.284 20.2213 18.2608 20.2605 18.2341 20.2967H18.1943C18.1736 20.2718 18.1552 20.2445 18.132 20.2219C15.7629 17.8522 13.3937 15.4831 11.024 13.1139C10.9884 13.0783 10.9474 13.0474 10.9058 13.0118C10.8589 13.0563 10.8197 13.0913 10.7829 13.1282C8.42268 15.4878 6.06245 17.848 3.70281 20.2083C3.6755 20.2356 3.65234 20.2676 3.62681 20.2973H3.58703C3.56031 20.2617 3.53715 20.2219 3.50568 20.1905C2.63225 19.3158 1.75822 18.4412 0.883001 17.5678C0.851532 17.5363 0.812343 17.5131 0.776123 17.4864C0.776123 17.4734 0.776123 17.4603 0.776123 17.4466C0.801061 17.4259 0.828375 17.4075 0.850938 17.3843C3.22067 15.0152 5.58981 12.646 7.95895 10.2763C7.99457 10.2407 8.02545 10.1997 8.06167 10.1581C8.01714 10.1112 7.98211 10.072 7.94529 10.0352C5.58625 7.6738 3.22661 5.31357 0.866376 2.95393C0.839063 2.92661 0.806999 2.90346 0.777311 2.87792C0.777311 2.86486 0.777311 2.8518 0.777311 2.83814C0.812937 2.81142 0.852719 2.78827 0.884189 2.7568C1.75881 1.88336 2.63284 1.00933 3.50627 0.13471C3.53774 0.103241 3.5609 0.0634582 3.58762 0.027832Z" fill="black"/>
</g>
<defs>
<clipPath id="clip0_1_693">
<rect width="20.2671" height="20.2671" fill="white" transform="translate(0.777344 0.027832)"/>
</clipPath>
</defs>
</svg>
