<svg width="21" height="21" viewBox="0 0 21 21" fill="none" xmlns="http://www.w3.org/2000/svg">
<g clip-path="url(#clip0_1_678)">
<path d="M3.30832 0.672852C3.32139 0.672852 3.33445 0.672852 3.34811 0.672852C3.36889 0.69779 3.38729 0.725103 3.41045 0.747666C5.77959 3.1174 8.14873 5.48654 10.5185 7.85568C10.5541 7.8913 10.5951 7.92218 10.6366 7.95781C10.6835 7.91327 10.7227 7.87824 10.7595 7.84143C13.1192 5.48179 15.4794 3.12215 17.839 0.761917C17.8664 0.734604 17.8895 0.70254 17.915 0.672852C17.9281 0.672852 17.9412 0.672852 17.9548 0.672852C17.9815 0.708478 18.0047 0.74826 18.0362 0.77973C18.9096 1.65435 19.7836 2.52897 20.6589 3.40241C20.6903 3.43388 20.7295 3.45704 20.7657 3.48376V3.52354C20.7408 3.54432 20.7135 3.56273 20.6909 3.58588C18.3212 5.95502 15.952 8.32416 13.5829 10.6939C13.5473 10.7295 13.5164 10.7705 13.4802 10.8121C13.5247 10.859 13.5597 10.8982 13.5966 10.935C15.9562 13.2952 18.3164 15.6554 20.6767 18.0151C20.704 18.0424 20.736 18.0655 20.7657 18.0911V18.1309C20.7301 18.1576 20.6903 18.1807 20.6589 18.2122C19.7842 19.0856 18.9096 19.9597 18.0362 20.8349C18.0047 20.8663 17.9815 20.9055 17.9548 20.9418H17.915C17.8943 20.9168 17.8759 20.8895 17.8527 20.8669C15.4836 18.4972 13.1144 16.1281 10.7447 13.7589C10.7091 13.7233 10.6681 13.6924 10.6265 13.6568C10.5796 13.7013 10.5404 13.7364 10.5036 13.7732C8.14339 16.1328 5.78315 18.4931 3.42351 20.8533C3.3962 20.8806 3.37304 20.9127 3.34751 20.9424H3.30773C3.28101 20.9067 3.25785 20.8669 3.22638 20.8355C2.35295 19.9609 1.47892 19.0862 0.603705 18.2128C0.572235 18.1813 0.533046 18.1582 0.496826 18.1314C0.496826 18.1184 0.496826 18.1053 0.496826 18.0917C0.521764 18.0709 0.549078 18.0525 0.571641 18.0293C2.94137 15.6602 5.31051 13.291 7.67965 10.9213C7.71528 10.8857 7.74615 10.8447 7.78237 10.8031C7.73784 10.7562 7.70281 10.7171 7.666 10.6802C5.30695 8.31882 2.94731 5.95859 0.587079 3.59895C0.559766 3.57163 0.527702 3.54848 0.498014 3.52294C0.498014 3.50988 0.498014 3.49682 0.498014 3.48316C0.53364 3.45644 0.573422 3.43328 0.604892 3.40181C1.47951 2.52838 2.35354 1.65435 3.22698 0.77973C3.25845 0.74826 3.2816 0.708478 3.30832 0.672852Z" fill="black"/>
</g>
<defs>
<clipPath id="clip0_1_678">
<rect width="20.2671" height="20.2671" fill="white" transform="translate(0.498047 0.672852)"/>
</clipPath>
</defs>
</svg>
