<svg width="22" height="21" viewBox="0 0 22 21" fill="none" xmlns="http://www.w3.org/2000/svg">
<g clip-path="url(#clip0_1_681)">
<path d="M3.58762 0.374512C3.60068 0.374512 3.61375 0.374512 3.6274 0.374512C3.64818 0.39945 3.66659 0.426763 3.68975 0.449327C6.05889 2.81906 8.42803 5.1882 10.7978 7.55734C10.8334 7.59296 10.8744 7.62384 10.9159 7.65947C10.9628 7.61493 11.002 7.5799 11.0388 7.54309C13.3985 5.18345 15.7587 2.82381 18.1183 0.463577C18.1457 0.436264 18.1688 0.4042 18.1943 0.374512C18.2074 0.374512 18.2205 0.374512 18.2341 0.374512C18.2608 0.410138 18.284 0.44992 18.3155 0.48139C19.1889 1.35601 20.0629 2.23063 20.9381 3.10407C20.9696 3.13554 21.0088 3.1587 21.045 3.18542V3.2252C21.0201 3.24598 20.9928 3.26439 20.9702 3.28754C18.6005 5.65668 16.2313 8.02582 13.8622 10.3956C13.8266 10.4312 13.7957 10.4722 13.7595 10.5137C13.804 10.5606 13.839 10.5998 13.8759 10.6366C16.2355 12.9969 18.5957 15.3571 20.956 17.7167C20.9833 17.744 21.0153 17.7672 21.045 17.7927V17.8325C21.0094 17.8592 20.9696 17.8824 20.9381 17.9139C20.0635 18.7873 19.1889 19.6613 18.3155 20.5365C18.284 20.568 18.2608 20.6072 18.2341 20.6434H18.1943C18.1736 20.6185 18.1552 20.5912 18.132 20.5686C15.7629 18.1989 13.3937 15.8297 11.024 13.4606C10.9884 13.425 10.9474 13.3941 10.9058 13.3585C10.8589 13.403 10.8197 13.438 10.7829 13.4748C8.42268 15.8345 6.06245 18.1947 3.70281 20.5549C3.6755 20.5823 3.65234 20.6143 3.62681 20.644H3.58703C3.56031 20.6084 3.53715 20.5686 3.50568 20.5371C2.63225 19.6625 1.75822 18.7879 0.883001 17.9145C0.851532 17.883 0.812343 17.8598 0.776123 17.8331C0.776123 17.82 0.776123 17.807 0.776123 17.7933C0.801061 17.7725 0.828375 17.7541 0.850938 17.731C3.22067 15.3618 5.58981 12.9927 7.95895 10.623C7.99457 10.5873 8.02545 10.5464 8.06167 10.5048C8.01714 10.4579 7.98211 10.4187 7.94529 10.3819C5.58625 8.02048 3.22661 5.66025 0.866376 3.30061C0.839063 3.27329 0.806999 3.25014 0.777311 3.2246C0.777311 3.21154 0.777311 3.19848 0.777311 3.18482C0.812937 3.1581 0.852719 3.13494 0.884189 3.10347C1.75881 2.23004 2.63284 1.35601 3.50627 0.48139C3.53774 0.44992 3.5609 0.410138 3.58762 0.374512Z" fill="black"/>
</g>
<defs>
<clipPath id="clip0_1_681">
<rect width="20.2671" height="20.2671" fill="white" transform="translate(0.777344 0.374512)"/>
</clipPath>
</defs>
</svg>
