<svg width="21" height="21" viewBox="0 0 21 21" fill="none" xmlns="http://www.w3.org/2000/svg">
<g clip-path="url(#clip0_1_699)">
<path d="M3.30832 0.230469C3.32139 0.230469 3.33445 0.230469 3.34811 0.230469C3.36889 0.255407 3.38729 0.28272 3.41045 0.305284C5.77959 2.67502 8.14873 5.04416 10.5185 7.4133C10.5541 7.44892 10.5951 7.4798 10.6366 7.51542C10.6835 7.47089 10.7227 7.43586 10.7595 7.39904C13.1192 5.03941 15.4794 2.67977 17.839 0.319534C17.8664 0.292221 17.8895 0.260157 17.915 0.230469C17.9281 0.230469 17.9412 0.230469 17.9548 0.230469C17.9815 0.266095 18.0047 0.305877 18.0362 0.337347C18.9096 1.21197 19.7836 2.08659 20.6589 2.96003C20.6903 2.9915 20.7295 3.01465 20.7657 3.04137V3.08115C20.7408 3.10194 20.7135 3.12034 20.6909 3.1435C18.3212 5.51264 15.952 7.88178 13.5829 10.2515C13.5473 10.2871 13.5164 10.3281 13.4802 10.3697C13.5247 10.4166 13.5597 10.4558 13.5966 10.4926C15.9562 12.8528 18.3164 15.213 20.6767 17.5727C20.704 17.6 20.736 17.6232 20.7657 17.6487V17.6885C20.7301 17.7152 20.6903 17.7383 20.6589 17.7698C19.7842 18.6433 18.9096 19.5173 18.0362 20.3925C18.0047 20.424 17.9815 20.4632 17.9548 20.4994H17.915C17.8943 20.4744 17.8759 20.4471 17.8527 20.4246C15.4836 18.0548 13.1144 15.6857 10.7447 13.3165C10.7091 13.2809 10.6681 13.25 10.6265 13.2144C10.5796 13.259 10.5404 13.294 10.5036 13.3308C8.14339 15.6904 5.78315 18.0507 3.42351 20.4109C3.3962 20.4382 3.37304 20.4703 3.34751 20.5H3.30773C3.28101 20.4643 3.25785 20.4246 3.22638 20.3931C2.35295 19.5185 1.47892 18.6438 0.603705 17.7704C0.572235 17.7389 0.533046 17.7158 0.496826 17.6891C0.496826 17.676 0.496826 17.6629 0.496826 17.6493C0.521764 17.6285 0.549078 17.6101 0.571641 17.5869C2.94137 15.2178 5.31051 12.8487 7.67965 10.4789C7.71528 10.4433 7.74615 10.4023 7.78237 10.3608C7.73784 10.3139 7.70281 10.2747 7.666 10.2379C5.30695 7.87643 2.94731 5.5162 0.587079 3.15656C0.559766 3.12925 0.527702 3.10609 0.498014 3.08056C0.498014 3.0675 0.498014 3.05444 0.498014 3.04078C0.53364 3.01406 0.573422 2.9909 0.604892 2.95943C1.47951 2.086 2.35354 1.21197 3.22698 0.337347C3.25845 0.305877 3.2816 0.266095 3.30832 0.230469Z" fill="black"/>
</g>
<defs>
<clipPath id="clip0_1_699">
<rect width="20.2671" height="20.2671" fill="white" transform="translate(0.498047 0.230469)"/>
</clipPath>
</defs>
</svg>
