<svg width="22" height="21" viewBox="0 0 22 21" fill="none" xmlns="http://www.w3.org/2000/svg">
<g clip-path="url(#clip0_1_669)">
<path d="M3.56809 0.543945C3.58115 0.543945 3.59421 0.543945 3.60787 0.543945C3.62865 0.568884 3.64706 0.596197 3.67022 0.61876C6.03936 2.98849 8.4085 5.35763 10.7782 7.72677C10.8139 7.7624 10.8548 7.79327 10.8964 7.8289C10.9433 7.78437 10.9825 7.74933 11.0193 7.71252C13.3789 5.35288 15.7392 2.99324 18.0988 0.633011C18.1261 0.605697 18.1493 0.573634 18.1748 0.543945C18.1879 0.543945 18.2009 0.543945 18.2146 0.543945C18.2413 0.579571 18.2645 0.619354 18.2959 0.650824C19.1694 1.52545 20.0434 2.40007 20.9186 3.2735C20.9501 3.30497 20.9893 3.32813 21.0255 3.35485V3.39463C21.0006 3.41541 20.9732 3.43382 20.9507 3.45698C18.5809 5.82612 16.2118 8.19526 13.8427 10.565C13.807 10.6006 13.7762 10.6416 13.7399 10.6831C13.7845 10.7301 13.8195 10.7692 13.8563 10.8061C16.216 13.1663 18.5762 15.5265 20.9364 17.8862C20.9637 17.9135 20.9958 17.9366 21.0255 17.9622V18.0019C20.9899 18.0287 20.9501 18.0518 20.9186 18.0833C20.044 18.9567 19.1694 19.8308 18.2959 20.706C18.2645 20.7374 18.2413 20.7766 18.2146 20.8129H18.1748C18.154 20.7879 18.1356 20.7606 18.1125 20.738C15.7433 18.3683 13.3742 15.9992 11.0045 13.63C10.9688 13.5944 10.9279 13.5635 10.8863 13.5279C10.8394 13.5724 10.8002 13.6075 10.7634 13.6443C8.40315 16.0039 6.04292 18.3641 3.68328 20.7244C3.65597 20.7517 3.63281 20.7838 3.60728 20.8134H3.5675C3.54078 20.7778 3.51762 20.738 3.48615 20.7066C2.61271 19.8319 1.73869 18.9573 0.86347 18.0839C0.832 18.0524 0.792812 18.0293 0.756592 18.0025C0.756592 17.9895 0.756592 17.9764 0.756592 17.9628C0.78153 17.942 0.808843 17.9236 0.831407 17.9004C3.20114 15.5313 5.57028 13.1621 7.93942 10.7924C7.97504 10.7568 8.00592 10.7158 8.04214 10.6742C7.99761 10.6273 7.96257 10.5881 7.92576 10.5513C5.56672 8.18991 3.20708 5.82968 0.846845 3.47004C0.819531 3.44273 0.787468 3.41957 0.757779 3.39404C0.757779 3.38097 0.757779 3.36791 0.757779 3.35426C0.793405 3.32754 0.833188 3.30438 0.864658 3.27291C1.73928 2.39947 2.61331 1.52545 3.48674 0.650824C3.51821 0.619354 3.54137 0.579571 3.56809 0.543945Z" fill="black"/>
</g>
<defs>
<clipPath id="clip0_1_669">
<rect width="20.2671" height="20.2671" fill="white" transform="translate(0.757812 0.543945)"/>
</clipPath>
</defs>
</svg>
