<svg width="68" height="79" viewBox="0 0 68 79" fill="none" xmlns="http://www.w3.org/2000/svg">
<g clip-path="url(#clip0_1_710)">
<path d="M28.4966 47.6637C28.7954 55.3271 29.9424 62.7341 34.1746 69.3909C33.9592 69.5506 33.7596 69.7079 33.5503 69.8543C23.2239 77.11 8.79348 71.438 6.2019 59.0826C5.31747 54.8649 5.9333 50.8299 7.99012 47.0357C8.12925 46.778 8.45351 46.5336 8.73783 46.4562C11.4456 45.7206 14.1122 45.8512 16.7304 46.899C18.9493 47.7859 21.2215 48.5215 23.6437 48.3702C25.1028 48.2795 26.5498 47.9794 28.0017 47.7713C28.1578 47.7496 28.3102 47.706 28.4966 47.6649V47.6637ZM16.7062 57.3694C16.7183 55.9079 15.5943 54.7452 14.1436 54.7185C12.7244 54.6919 11.5133 55.8704 11.4891 57.2992C11.4649 58.7317 12.6276 59.9174 14.0734 59.9344C15.541 59.9513 16.6941 58.8273 16.7074 57.3694H16.7062ZM22.0055 63.8072C22.0043 63.3112 21.5711 62.8938 21.0654 62.9022C20.5984 62.9095 20.181 63.3281 20.1749 63.7951C20.1677 64.3009 20.5851 64.7304 21.0836 64.7292C21.5917 64.7292 22.0067 64.3142 22.0055 63.8072Z" fill="#5C9B4A"/>
<path d="M36.0597 71.9619C36.6974 72.5922 37.2842 73.173 37.906 73.7876C37.8008 73.8807 37.681 74.0066 37.5431 74.1094C33.9049 76.8305 29.8373 78.4275 25.2941 78.7711C13.4808 79.664 3.04787 71.8735 0.519193 60.2743C-1.86913 49.3139 4.16581 37.9579 14.6168 33.7995C15.1722 33.5781 15.3609 33.3349 15.3585 32.7287C15.3343 25.006 15.3379 17.2832 15.3537 9.5593C15.3537 9.10801 15.217 8.89507 14.8128 8.7039C12.8722 7.78801 11.8474 5.73241 12.2818 3.71189C12.7391 1.58974 14.4922 0.0471306 16.6434 0.0289822C21.1599 -0.00973431 25.6765 -0.00852442 30.193 0.0289822C32.3224 0.0459207 34.153 1.61878 34.5595 3.63688C34.9902 5.77597 33.986 7.81463 31.9981 8.72447C31.5759 8.91805 31.5214 9.16608 31.5227 9.5593C31.5287 17.3631 31.5311 25.1669 31.5118 32.9695C31.5118 33.4341 31.7078 33.5877 32.0828 33.7353C35.3024 35.0009 38.0948 36.9028 40.4734 39.4158C40.6222 39.5719 40.7565 39.7425 40.9743 39.9941C40.05 40.2639 39.2139 40.5216 38.367 40.7394C38.2376 40.7721 38.0246 40.6523 37.9097 40.5422C35.4475 38.1865 32.5825 36.5241 29.3207 35.5466C29.0448 35.4643 28.8924 35.353 28.8924 35.0142C28.9032 25.6182 28.9032 16.221 28.9057 6.82494C28.9057 6.76566 28.925 6.70758 28.9541 6.53941C29.3134 6.53941 29.6885 6.55151 30.0623 6.53699C31.2081 6.49222 32.0477 5.65861 32.0381 4.58664C32.0284 3.51347 31.1754 2.65929 30.0405 2.65687C25.6244 2.64477 21.2083 2.64598 16.7922 2.65687C15.684 2.6605 14.8564 3.48927 14.8358 4.54672C14.8141 5.65014 15.6102 6.48133 16.7535 6.53336C17.131 6.5503 17.5097 6.53578 17.9719 6.53578V7.2605C17.9719 16.4145 17.9658 25.5698 17.9852 34.7238C17.9852 35.2755 17.7904 35.4619 17.2968 35.6288C9.64661 38.2144 4.8252 43.4229 3.09021 51.3211C0.689788 62.2525 7.97817 73.4343 18.9337 75.7391C25.0437 77.024 30.6491 75.8226 35.7294 72.1869C35.8432 72.1058 35.9605 72.0296 36.0597 71.9631V71.9619Z" fill="#5C9B4A"/>
<path d="M30.3841 43.2887C37.1196 43.6432 43.2041 41.8526 48.6849 38.0245C54.1984 41.8223 60.272 43.6565 66.9894 43.2863C67.0184 43.4581 67.0474 43.5513 67.0474 43.6456C67.1043 48.369 66.918 53.0743 65.9077 57.7106C64.9192 62.2477 63.3198 66.5198 60.3313 70.1568C57.6369 73.4368 54.2698 75.6473 50.0618 76.5123C48.4526 76.8426 46.9354 76.5135 45.4388 76.0187C40.9005 74.5196 37.6035 71.5046 35.168 67.4744C33.0979 64.0504 31.94 60.2949 31.2141 56.3906C30.4301 52.1705 30.2813 47.9057 30.3442 43.6275C30.3442 43.5488 30.3623 43.4714 30.3853 43.2863L30.3841 43.2887ZM32.1179 44.5047C32.1046 44.7309 32.0888 44.8688 32.0876 45.008C32.0683 48.4368 32.1239 51.862 32.643 55.2618C33.1995 58.9084 34.1444 62.4365 35.9327 65.6898C38.0947 69.6232 41.1219 72.602 45.4364 74.1022C46.7297 74.5523 48.0546 74.9225 49.458 74.7132C52.1767 74.3091 54.5795 73.1851 56.7041 71.4707C60.1716 68.6722 62.2042 64.947 63.5049 60.7692C64.7438 56.7923 65.183 52.6932 65.2822 48.5505C65.3137 47.2257 65.287 45.8997 65.287 44.5059C64.5974 44.5059 63.9586 44.4986 63.3198 44.5059C58.1777 44.5688 53.5196 43.06 49.308 40.149C48.8265 39.8163 48.5204 39.8442 48.0582 40.1648C43.8659 43.0721 39.226 44.5664 34.1057 44.5071C33.4621 44.4998 32.8184 44.5071 32.1167 44.5071L32.1179 44.5047Z" fill="#5C9B4A"/>
<path d="M23.9402 29.1366C22.5101 29.1439 21.3147 27.9703 21.2978 26.5414C21.2797 25.0944 22.4968 23.876 23.9475 23.8893C25.3824 23.9026 26.5608 25.0871 26.562 26.5172C26.5633 27.9376 25.3703 29.1293 23.9414 29.1366H23.9402Z" fill="#5C9B4A"/>
<path d="M25.8567 37.7728C25.8627 38.7734 25.0231 39.6409 24.0334 39.6578C22.9965 39.6748 22.1338 38.8387 22.1205 37.8018C22.1072 36.7456 22.9215 35.912 23.9729 35.9059C25.0327 35.8999 25.8494 36.7093 25.8567 37.7716V37.7728Z" fill="#5C9B4A"/>
<path d="M22.3733 32.3549C22.3685 32.9732 21.8567 33.4765 21.2493 33.4595C20.6637 33.4438 20.1858 32.955 20.1774 32.3634C20.1689 31.7475 20.6649 31.2321 21.2711 31.2297C21.8785 31.2273 22.3781 31.7379 22.3721 32.3549H22.3733Z" fill="#5C9B4A"/>
<path d="M33.41 45.8791C34.8304 45.792 36.1855 45.7799 37.52 45.6141C41.3553 45.1374 44.8955 43.815 48.1307 41.7013C48.5324 41.4388 48.7901 41.3916 49.2257 41.6747C53.2703 44.3002 57.6985 45.7254 62.5381 45.8041C62.9967 45.8113 63.4552 45.8041 63.9029 45.8041C63.9404 45.9226 63.973 45.9783 63.973 46.0339C64.0553 51.2582 63.6609 56.4233 61.9235 61.402C60.6664 65.0038 58.7778 68.1967 55.7276 70.5911C53.8414 72.072 51.7277 73.0774 49.3382 73.4114C47.873 73.6158 46.501 73.1633 45.1713 72.6225C41.4521 71.1101 38.8617 68.383 36.99 64.907C35.2672 61.7081 34.2968 58.2587 33.9012 54.6774C33.5927 51.8801 33.5491 49.0526 33.3894 46.2396C33.3833 46.1223 33.4015 46.0037 33.4088 45.8766L33.41 45.8791Z" fill="#5C9B4A"/>
</g>
<defs>
<clipPath id="clip0_1_710">
<rect width="67.057" height="78.8401" fill="white"/>
</clipPath>
</defs>
</svg>
