<svg width="22" height="21" viewBox="0 0 22 21" fill="none" xmlns="http://www.w3.org/2000/svg">
<g clip-path="url(#clip0_1_687)">
<path d="M3.58762 0.528809C3.60068 0.528809 3.61375 0.528809 3.6274 0.528809C3.64818 0.553747 3.66659 0.58106 3.68975 0.603624C6.05889 2.97336 8.42803 5.3425 10.7978 7.71163C10.8334 7.74726 10.8744 7.77814 10.9159 7.81376C10.9628 7.76923 11.002 7.7342 11.0388 7.69738C13.3985 5.33775 15.7587 2.97811 18.1183 0.617874C18.1457 0.590561 18.1688 0.558497 18.1943 0.528809C18.2074 0.528809 18.2205 0.528809 18.2341 0.528809C18.2608 0.564435 18.284 0.604217 18.3155 0.635687C19.1889 1.51031 20.0629 2.38493 20.9381 3.25837C20.9696 3.28984 21.0088 3.31299 21.045 3.33971V3.37949C21.0201 3.40028 20.9928 3.41868 20.9702 3.44184C18.6005 5.81098 16.2313 8.18012 13.8622 10.5499C13.8266 10.5855 13.7957 10.6264 13.7595 10.668C13.804 10.7149 13.839 10.7541 13.8759 10.7909C16.2355 13.1512 18.5957 15.5114 20.956 17.871C20.9833 17.8983 21.0153 17.9215 21.045 17.947V17.9868C21.0094 18.0135 20.9696 18.0367 20.9381 18.0682C20.0635 18.9416 19.1889 19.8156 18.3155 20.6908C18.284 20.7223 18.2608 20.7615 18.2341 20.7977H18.1943C18.1736 20.7728 18.1552 20.7455 18.132 20.7229C15.7629 18.3532 13.3937 15.984 11.024 13.6149C10.9884 13.5793 10.9474 13.5484 10.9058 13.5128C10.8589 13.5573 10.8197 13.5923 10.7829 13.6291C8.42268 15.9888 6.06245 18.349 3.70281 20.7092C3.6755 20.7366 3.65234 20.7686 3.62681 20.7983H3.58703C3.56031 20.7627 3.53715 20.7229 3.50568 20.6914C2.63225 19.8168 1.75822 18.9422 0.883001 18.0688C0.851532 18.0373 0.812343 18.0141 0.776123 17.9874C0.776123 17.9743 0.776123 17.9613 0.776123 17.9476C0.801061 17.9268 0.828375 17.9084 0.850938 17.8853C3.22067 15.5161 5.58981 13.147 7.95895 10.7773C7.99457 10.7416 8.02545 10.7007 8.06167 10.6591C8.01714 10.6122 7.98211 10.573 7.94529 10.5362C5.58625 8.17477 3.22661 5.81454 0.866376 3.4549C0.839063 3.42759 0.806999 3.40443 0.777311 3.3789C0.777311 3.36584 0.777311 3.35278 0.777311 3.33912C0.812937 3.3124 0.852719 3.28924 0.884189 3.25777C1.75881 2.38434 2.63284 1.51031 3.50627 0.635687C3.53774 0.604217 3.5609 0.564435 3.58762 0.528809Z" fill="black"/>
</g>
<defs>
<clipPath id="clip0_1_687">
<rect width="20.2671" height="20.2671" fill="white" transform="translate(0.777344 0.528809)"/>
</clipPath>
</defs>
</svg>
