<svg width="72" height="72" viewBox="0 0 72 72" fill="none" xmlns="http://www.w3.org/2000/svg">
<g clip-path="url(#clip0_1_721)">
<path d="M71.1798 35.6049C71.1798 46.8457 71.1798 58.0884 71.1798 69.3291C71.1798 70.8363 70.8082 71.2004 69.2768 71.1948C67.1441 71.1874 65.0094 71.1668 62.8767 71.1836C62.3874 71.1874 62.1894 71.0585 61.9933 70.5655C61.5937 69.5626 61.0652 68.6045 60.5254 67.667C60.1426 67.004 59.6141 66.427 59.2182 65.7696C58.2059 64.0907 58.2041 62.3781 59.2294 60.7048C59.6944 59.9447 60.2547 59.2444 60.7608 58.5085C62.8001 55.541 62.8057 52.5342 60.7776 49.5704C60.3854 48.9971 59.9614 48.4462 59.5618 47.8784C58.0939 45.7886 58.0958 43.8483 59.5618 41.7454C60.0716 41.0133 60.6282 40.3093 61.0932 39.5492C62.7067 36.9103 62.6974 34.2509 61.0782 31.6177C60.6244 30.88 60.0847 30.1965 59.5861 29.4849C58.0883 27.3484 58.0883 25.4155 59.5805 23.2902C60.094 22.56 60.6487 21.8541 61.11 21.094C62.7142 18.4496 62.6937 15.7883 61.0633 13.1625C60.5665 12.3632 59.9708 11.6274 59.446 10.8449C58.1387 8.90076 58.1256 7.02013 59.4311 5.08348C60.4676 3.54835 61.7319 2.14582 62.1409 0.25399C62.1652 0.141937 62.4378 0.0149435 62.5947 0.0130759C65.0263 -0.00186451 67.4578 -0.00933472 69.8894 0.0130759C70.6513 0.0205461 71.1201 0.524785 71.1761 1.28301C71.1948 1.52953 71.1817 1.77978 71.1817 2.0263C71.1817 13.2185 71.1817 24.4108 71.1817 35.6012L71.1798 35.6049Z" fill="#5C9B4A"/>
<path d="M20.3508 35.631C20.3508 40.1953 20.3508 44.7578 20.3508 49.3221C20.3508 49.8767 20.3863 50.4519 19.7662 50.7265C19.1182 51.0122 18.6438 50.691 18.1807 50.2502C15.6483 47.8392 13.0953 45.4506 10.5741 43.0284C10.3426 42.8062 10.1782 42.399 10.1763 42.076C10.1502 37.76 10.1502 33.446 10.1763 29.1301C10.1782 28.807 10.3388 28.3961 10.5685 28.1758C13.1065 25.7367 15.6744 23.3257 18.233 20.9073C18.3058 20.84 18.3693 20.7317 18.4533 20.713C18.8866 20.6159 19.3927 20.375 19.7401 20.5132C20.0352 20.6327 20.3134 21.1967 20.3209 21.5702C20.3713 24.1493 20.347 26.7284 20.347 29.3075C20.347 31.416 20.347 33.5244 20.347 35.631H20.3508Z" fill="#5C9B4A"/>
<path d="M51.7032 33.0781C50.8049 32.0677 49.9514 31.106 49.0569 30.0975C48.73 30.4803 48.435 30.8408 48.125 31.1881C47.5442 31.838 46.7859 31.952 46.2257 31.4832C45.6411 30.9958 45.615 30.2674 46.1696 29.5708C46.5375 29.1095 46.9185 28.6595 47.3313 28.159C46.5151 27.2401 45.727 26.3549 44.8922 25.4137C44.7802 25.6322 44.7055 25.8002 44.6102 25.9552C44.3039 26.4501 43.8184 26.7508 43.2955 26.5248C42.8977 26.353 42.3934 25.9366 42.3318 25.5649C42.1189 24.2726 42.0442 22.9522 41.9844 21.6412C41.9471 20.84 42.5186 20.2741 43.3029 20.3937C44.6476 20.5972 45.9941 20.8494 47.2995 21.2247C47.6487 21.3256 48.0484 21.94 48.0596 22.3285C48.0708 22.7169 47.6413 23.1315 47.363 23.5013C47.279 23.6115 47.0493 23.6115 46.7859 23.6936C47.1781 24.1437 47.5236 24.5452 47.8766 24.943C48.2202 25.3315 48.5694 25.7162 48.9859 26.1831C49.8991 25.0887 50.7825 24.0317 51.7088 22.9223C49.4397 20.3657 47.1893 17.8314 44.8904 15.243C44.7932 15.4372 44.7279 15.581 44.6513 15.7192C44.3506 16.2552 43.8931 16.4998 43.2861 16.3878C42.7128 16.2813 42.3468 15.9171 42.2889 15.3363C42.1637 14.0776 42.0442 12.817 41.9826 11.5545C41.9359 10.617 42.5877 10.0698 43.5158 10.2323C44.6382 10.4284 45.7532 10.6637 46.87 10.8953C47.6898 11.0652 48.0951 11.4836 48.1175 12.1484C48.1418 12.8525 47.7627 13.2559 46.7747 13.4912C46.9839 13.7433 47.1557 13.9656 47.3425 14.1747C49.5499 16.6604 51.7611 19.1443 53.9685 21.63C54.906 22.6852 54.9098 23.0587 54.0246 24.1232C52.9302 25.4361 51.8377 26.7508 50.7078 28.1085C51.8451 29.3934 52.9619 30.6503 54.075 31.9127C54.8724 32.8166 54.8836 33.2536 54.1142 34.1781C52.1477 36.5443 50.1793 38.9086 48.2053 41.2673C47.6375 41.9452 47.053 42.1133 46.4554 41.807C45.6934 41.4167 45.5627 40.4848 46.1939 39.721C47.8374 37.732 49.4957 35.7543 51.1467 33.7728C51.3203 33.5636 51.4903 33.3507 51.7107 33.08L51.7032 33.0781Z" fill="#5C9B4A"/>
<path d="M7.5674 41.9508C5.41412 41.9508 3.31125 41.977 1.20839 41.9359C0.480045 41.921 0.0187596 41.398 0.0150245 40.6604C-0.00365102 37.2857 -0.00178347 33.911 0.0150245 30.5364C0.0187596 29.7968 0.480045 29.272 1.20652 29.2589C3.30939 29.2179 5.41225 29.244 7.56927 29.244V41.9508H7.5674Z" fill="#5C9B4A"/>
<path d="M39.4053 35.4275C39.3492 40.6006 38.2156 45.3442 35.7168 49.731C35.6179 49.9029 35.5226 50.0784 35.405 50.2372C34.9586 50.8497 34.2265 51.0141 33.6401 50.6405C33.0425 50.2596 32.9286 49.5854 33.2554 48.872C34.0585 47.1202 35.009 45.4114 35.5786 43.5831C37.8627 36.2548 37.11 29.1992 33.3619 22.4816C32.8931 21.6412 32.9958 20.9409 33.67 20.5393C34.3405 20.1397 35.0557 20.3601 35.5394 21.1724C37.7618 24.9019 38.9309 28.9639 39.3007 33.2704C39.366 34.0361 39.3754 34.8056 39.4034 35.4256L39.4053 35.4275Z" fill="#5C9B4A"/>
<path d="M34.3087 35.5881C34.3087 38.7554 33.7036 41.8014 32.4337 44.6998C32.2563 45.1051 31.8398 45.5384 31.4383 45.6728C31.1096 45.783 30.5624 45.5683 30.2486 45.3217C29.7986 44.9669 29.8789 44.4253 30.0357 43.8837C30.5792 42.0106 31.2478 40.1505 31.5559 38.2344C32.1498 34.5292 31.5783 30.9192 30.103 27.4642C29.8751 26.932 29.7388 26.3567 30.1889 25.9384C30.4783 25.6695 31.0274 25.408 31.3449 25.5089C31.7707 25.6433 32.2395 26.0617 32.4225 26.4763C33.6999 29.371 34.3087 32.4188 34.3068 35.5862L34.3087 35.5881Z" fill="#5C9B4A"/>
<path d="M29.3019 36.0008C29.1226 36.9757 28.9228 38.2941 28.6296 39.594C28.4391 40.4418 27.7425 40.8378 27.0329 40.6305C26.3437 40.4306 25.9777 39.7732 26.2037 38.9702C26.833 36.7161 26.833 34.4769 26.2037 32.2227C25.9796 31.4197 26.3531 30.7604 27.0422 30.5681C27.7593 30.3683 28.398 30.7698 28.6427 31.612C28.8014 32.1574 28.9471 32.712 29.0293 33.2742C29.1432 34.0567 29.1917 34.8485 29.3038 36.0027L29.3019 36.0008Z" fill="#5C9B4A"/>
</g>
<defs>
<clipPath id="clip0_1_721">
<rect width="71.1836" height="71.1948" fill="white"/>
</clipPath>
</defs>
</svg>
