<svg width="21" height="22" viewBox="0 0 21 22" fill="none" xmlns="http://www.w3.org/2000/svg">
<g clip-path="url(#clip0_1_675)">
<path d="M3.30832 0.777832C3.32139 0.777832 3.33445 0.777832 3.34811 0.777832C3.36889 0.80277 3.38729 0.830084 3.41045 0.852647C5.77959 3.22238 8.14873 5.59152 10.5185 7.96066C10.5541 7.99628 10.5951 8.02716 10.6366 8.06279C10.6835 8.01825 10.7227 7.98322 10.7595 7.94641C13.1192 5.58677 15.4794 3.22713 17.839 0.866897C17.8664 0.839584 17.8895 0.80752 17.915 0.777832C17.9281 0.777832 17.9412 0.777832 17.9548 0.777832C17.9815 0.813458 18.0047 0.853241 18.0362 0.88471C18.9096 1.75933 19.7836 2.63395 20.6589 3.50739C20.6903 3.53886 20.7295 3.56202 20.7657 3.58874V3.62852C20.7408 3.6493 20.7135 3.66771 20.6909 3.69086C18.3212 6.06 15.952 8.42914 13.5829 10.7989C13.5473 10.8345 13.5164 10.8755 13.4802 10.917C13.5247 10.9639 13.5597 11.0031 13.5966 11.0399C15.9562 13.4002 18.3164 15.7604 20.6767 18.12C20.704 18.1474 20.736 18.1705 20.7657 18.1961V18.2358C20.7301 18.2626 20.6903 18.2857 20.6589 18.3172C19.7842 19.1906 18.9096 20.0646 18.0362 20.9399C18.0047 20.9713 17.9815 21.0105 17.9548 21.0467H17.915C17.8943 21.0218 17.8759 20.9945 17.8527 20.9719C15.4836 18.6022 13.1144 16.2331 10.7447 13.8639C10.7091 13.8283 10.6681 13.7974 10.6265 13.7618C10.5796 13.8063 10.5404 13.8413 10.5036 13.8782C8.14339 16.2378 5.78315 18.598 3.42351 20.9583C3.3962 20.9856 3.37304 21.0176 3.34751 21.0473H3.30773C3.28101 21.0117 3.25785 20.9719 3.22638 20.9405C2.35295 20.0658 1.47892 19.1912 0.603705 18.3178C0.572235 18.2863 0.533046 18.2631 0.496826 18.2364C0.496826 18.2234 0.496826 18.2103 0.496826 18.1966C0.521764 18.1759 0.549078 18.1575 0.571641 18.1343C2.94137 15.7652 5.31051 13.396 7.67965 11.0263C7.71528 10.9907 7.74615 10.9497 7.78237 10.9081C7.73784 10.8612 7.70281 10.822 7.666 10.7852C5.30695 8.4238 2.94731 6.06357 0.587079 3.70393C0.559766 3.67661 0.527702 3.65346 0.498014 3.62792C0.498014 3.61486 0.498014 3.6018 0.498014 3.58814C0.53364 3.56142 0.573422 3.53827 0.604892 3.5068C1.47951 2.63336 2.35354 1.75933 3.22698 0.88471C3.25845 0.853241 3.2816 0.813458 3.30832 0.777832Z" fill="black"/>
</g>
<defs>
<clipPath id="clip0_1_675">
<rect width="20.2671" height="20.2671" fill="white" transform="translate(0.498047 0.777832)"/>
</clipPath>
</defs>
</svg>
