<svg width="21" height="21" viewBox="0 0 21 21" fill="none" xmlns="http://www.w3.org/2000/svg">
<g clip-path="url(#clip0_1_672)">
<path d="M3.30832 0.479492C3.32139 0.479492 3.33445 0.479492 3.34811 0.479492C3.36889 0.50443 3.38729 0.531744 3.41045 0.554307C5.77959 2.92404 8.14873 5.29318 10.5185 7.66232C10.5541 7.69794 10.5951 7.72882 10.6366 7.76445C10.6835 7.71991 10.7227 7.68488 10.7595 7.64807C13.1192 5.28843 15.4794 2.92879 17.839 0.568558C17.8664 0.541244 17.8895 0.509181 17.915 0.479492C17.9281 0.479492 17.9412 0.479492 17.9548 0.479492C17.9815 0.515118 18.0047 0.554901 18.0362 0.586371C18.9096 1.46099 19.7836 2.33561 20.6589 3.20905C20.6903 3.24052 20.7295 3.26368 20.7657 3.2904V3.33018C20.7408 3.35096 20.7135 3.36937 20.6909 3.39252C18.3212 5.76166 15.952 8.1308 13.5829 10.5005C13.5473 10.5362 13.5164 10.5771 13.4802 10.6187C13.5247 10.6656 13.5597 10.7048 13.5966 10.7416C15.9562 13.1018 18.3164 15.4621 20.6767 17.8217C20.704 17.849 20.736 17.8722 20.7657 17.8977V17.9375C20.7301 17.9642 20.6903 17.9874 20.6589 18.0188C19.7842 18.8923 18.9096 19.7663 18.0362 20.6415C18.0047 20.673 17.9815 20.7122 17.9548 20.7484H17.915C17.8943 20.7235 17.8759 20.6961 17.8527 20.6736C15.4836 18.3039 13.1144 15.9347 10.7447 13.5656C10.7091 13.5299 10.6681 13.4991 10.6265 13.4634C10.5796 13.508 10.5404 13.543 10.5036 13.5798C8.14339 15.9395 5.78315 18.2997 3.42351 20.6599C3.3962 20.6872 3.37304 20.7193 3.34751 20.749H3.30773C3.28101 20.7134 3.25785 20.6736 3.22638 20.6421C2.35295 19.7675 1.47892 18.8929 0.603705 18.0194C0.572235 17.988 0.533046 17.9648 0.496826 17.9381C0.496826 17.925 0.496826 17.912 0.496826 17.8983C0.521764 17.8775 0.549078 17.8591 0.571641 17.836C2.94137 15.4668 5.31051 13.0977 7.67965 10.7279C7.71528 10.6923 7.74615 10.6514 7.78237 10.6098C7.73784 10.5629 7.70281 10.5237 7.666 10.4869C5.30695 8.12546 2.94731 5.76523 0.587079 3.40559C0.559766 3.37827 0.527702 3.35512 0.498014 3.32958C0.498014 3.31652 0.498014 3.30346 0.498014 3.2898C0.53364 3.26308 0.573422 3.23993 0.604892 3.20846C1.47951 2.33502 2.35354 1.46099 3.22698 0.586371C3.25845 0.554901 3.2816 0.515118 3.30832 0.479492Z" fill="black"/>
</g>
<defs>
<clipPath id="clip0_1_672">
<rect width="20.2671" height="20.2671" fill="white" transform="translate(0.498047 0.479492)"/>
</clipPath>
</defs>
</svg>
