<svg width="265" height="382" viewBox="0 0 265 382" fill="none" xmlns="http://www.w3.org/2000/svg">
<g clip-path="url(#clip0_1_621)">
<path d="M9.29528 12.2275C9.69778 11.5482 10.0652 10.8742 10.4836 10.2332C11.844 8.14752 13.5427 6.36177 15.4354 4.75612C17.4638 3.03459 19.6722 1.57725 22.0144 0.318553C22.2256 0.205329 22.448 0.127861 22.6314 0.307297C22.74 0.413237 22.8115 0.601943 22.8161 0.755556C22.8194 0.869441 22.7135 1.01643 22.6155 1.10052C19.9569 3.36036 17.7292 5.99429 15.8352 8.91559C13.7592 12.1183 12.1975 15.5514 11.2614 19.26C11.2515 19.2997 11.2356 19.3388 11.227 19.3792C11.182 19.5904 11.0681 19.7394 10.8517 19.795C10.6312 19.8513 10.469 19.7526 10.3267 19.5983C9.6713 18.8879 9.01459 18.1781 8.35854 17.4683C5.85815 14.7622 3.35775 12.0554 0.857358 9.34928C0.8183 9.30691 0.779241 9.26387 0.739521 9.22149C0.587922 9.0606 0.55085 8.87255 0.635586 8.67259C0.722309 8.46866 0.895092 8.38059 1.11157 8.37927C1.4995 8.37662 1.8881 8.37861 2.27604 8.37861C3.37497 8.37861 4.47323 8.38324 5.57216 8.3753C5.83365 8.37331 6.02431 8.46137 6.19511 8.65935C7.14906 9.76775 8.11095 10.8689 9.0702 11.9726C9.14567 12.0594 9.2218 12.1454 9.29528 12.2289V12.2275Z" fill="#231F20"/>
</g>
<g clip-path="url(#clip1_1_621)">
<path d="M9.29528 48.5064C9.69778 47.827 10.0652 47.153 10.4836 46.512C11.844 44.4263 13.5427 42.6406 15.4354 41.0349C17.4638 39.3134 19.6722 37.8561 22.0144 36.5974C22.2256 36.4841 22.448 36.4067 22.6314 36.5861C22.74 36.692 22.8115 36.8808 22.8161 37.0344C22.8194 37.1482 22.7135 37.2952 22.6155 37.3793C19.9569 39.6392 17.7292 42.2731 15.8352 45.1944C13.7592 48.3971 12.1975 51.8302 11.2614 55.5388C11.2515 55.5785 11.2356 55.6176 11.227 55.658C11.182 55.8692 11.0681 56.0182 10.8517 56.0738C10.6312 56.1301 10.469 56.0314 10.3267 55.8771C9.6713 55.1667 9.01459 54.4569 8.35854 53.7471C5.85815 51.041 3.35775 48.3342 0.857358 45.6281C0.8183 45.5857 0.779241 45.5427 0.739521 45.5003C0.587922 45.3394 0.55085 45.1514 0.635586 44.9514C0.722309 44.7475 0.895092 44.6594 1.11157 44.6581C1.4995 44.6554 1.8881 44.6574 2.27604 44.6574C3.37497 44.6574 4.47323 44.6621 5.57216 44.6541C5.83365 44.6521 6.02431 44.7402 6.19511 44.9382C7.14906 46.0466 8.11095 47.1477 9.0702 48.2514C9.14567 48.3382 9.2218 48.4242 9.29528 48.5077V48.5064Z" fill="#231F20"/>
</g>
<g clip-path="url(#clip2_1_621)">
<path d="M251.481 48.5064C251.883 47.827 252.251 47.153 252.669 46.512C254.03 44.4263 255.728 42.6406 257.621 41.0349C259.649 39.3134 261.858 37.8561 264.2 36.5974C264.411 36.4841 264.634 36.4067 264.817 36.5861C264.926 36.692 264.997 36.8808 265.002 37.0344C265.005 37.1482 264.899 37.2952 264.801 37.3793C262.142 39.6392 259.915 42.2731 258.021 45.1944C255.945 48.3971 254.383 51.8302 253.447 55.5388C253.437 55.5785 253.421 55.6176 253.413 55.658C253.368 55.8692 253.254 56.0182 253.037 56.0738C252.817 56.1301 252.655 56.0314 252.512 55.8771C251.857 55.1667 251.2 54.4569 250.544 53.7471C248.044 51.041 245.543 48.3342 243.043 45.6281C243.004 45.5857 242.965 45.5427 242.925 45.5003C242.773 45.3394 242.736 45.1514 242.821 44.9514C242.908 44.7475 243.081 44.6594 243.297 44.6581C243.685 44.6554 244.074 44.6574 244.462 44.6574C245.561 44.6574 246.659 44.6621 247.758 44.6541C248.019 44.6521 248.21 44.7402 248.381 44.9382C249.335 46.0466 250.297 47.1477 251.256 48.2514C251.331 48.3382 251.407 48.4242 251.481 48.5077V48.5064Z" fill="#231F20"/>
</g>
<g clip-path="url(#clip3_1_621)">
<path d="M251.481 83.8047C251.883 83.1253 252.251 82.4513 252.669 81.8104C254.03 79.7247 255.728 77.9389 257.621 76.3333C259.649 74.6117 261.858 73.1544 264.2 71.8957C264.411 71.7825 264.634 71.705 264.817 71.8844C264.926 71.9904 264.997 72.1791 265.002 72.3327C265.005 72.4466 264.899 72.5936 264.801 72.6777C262.142 74.9375 259.915 77.5714 258.021 80.4927C255.945 83.6954 254.383 87.1286 253.447 90.8371C253.437 90.8769 253.421 90.9159 253.413 90.9563C253.368 91.1675 253.254 91.3165 253.037 91.3721C252.817 91.4284 252.655 91.3297 252.512 91.1755C251.857 90.465 251.2 89.7552 250.544 89.0454C248.044 86.3393 245.543 83.6325 243.043 80.9264C243.004 80.8841 242.965 80.841 242.925 80.7986C242.773 80.6377 242.736 80.4497 242.821 80.2497C242.908 80.0458 243.081 79.9577 243.297 79.9564C243.685 79.9538 244.074 79.9558 244.462 79.9558C245.561 79.9558 246.659 79.9604 247.758 79.9524C248.019 79.9505 248.21 80.0385 248.381 80.2365C249.335 81.3449 250.297 82.446 251.256 83.5498C251.331 83.6365 251.407 83.7226 251.481 83.806V83.8047Z" fill="#231F20"/>
</g>
<g clip-path="url(#clip4_1_621)">
<path d="M251.481 119.103C251.883 118.424 252.251 117.75 252.669 117.109C254.03 115.023 255.728 113.237 257.621 111.632C259.649 109.91 261.858 108.453 264.2 107.194C264.411 107.081 264.634 107.003 264.817 107.183C264.926 107.289 264.997 107.477 265.002 107.631C265.005 107.745 264.899 107.892 264.801 107.976C262.142 110.236 259.915 112.87 258.021 115.791C255.945 118.994 254.383 122.427 253.447 126.135C253.437 126.175 253.421 126.214 253.413 126.255C253.368 126.466 253.254 126.615 253.037 126.67C252.817 126.727 252.655 126.628 252.512 126.474C251.857 125.763 251.2 125.053 250.544 124.344C248.044 121.638 245.543 118.931 243.043 116.225C243.004 116.182 242.965 116.139 242.925 116.097C242.773 115.936 242.736 115.748 242.821 115.548C242.908 115.344 243.081 115.256 243.297 115.255C243.685 115.252 244.074 115.254 244.462 115.254C245.561 115.254 246.659 115.259 247.758 115.251C248.019 115.249 248.21 115.337 248.381 115.535C249.335 116.643 250.297 117.744 251.256 118.848C251.331 118.935 251.407 119.021 251.481 119.104V119.103Z" fill="#231F20"/>
</g>
<g clip-path="url(#clip5_1_621)">
<path d="M9.29528 83.8047C9.69778 83.1253 10.0652 82.4513 10.4836 81.8104C11.844 79.7247 13.5427 77.9389 15.4354 76.3333C17.4638 74.6117 19.6722 73.1544 22.0144 71.8957C22.2256 71.7825 22.448 71.705 22.6314 71.8844C22.74 71.9904 22.8115 72.1791 22.8161 72.3327C22.8194 72.4466 22.7135 72.5936 22.6155 72.6777C19.9569 74.9375 17.7292 77.5714 15.8352 80.4927C13.7592 83.6954 12.1975 87.1286 11.2614 90.8371C11.2515 90.8769 11.2356 90.9159 11.227 90.9563C11.182 91.1675 11.0681 91.3165 10.8517 91.3721C10.6312 91.4284 10.469 91.3297 10.3267 91.1755C9.6713 90.465 9.01459 89.7552 8.35854 89.0454C5.85815 86.3393 3.35775 83.6325 0.857358 80.9264C0.8183 80.8841 0.779241 80.841 0.739521 80.7986C0.587922 80.6377 0.55085 80.4497 0.635586 80.2497C0.722309 80.0458 0.895092 79.9577 1.11157 79.9564C1.4995 79.9538 1.8881 79.9558 2.27604 79.9558C3.37497 79.9558 4.47323 79.9604 5.57216 79.9524C5.83365 79.9505 6.02431 80.0385 6.19511 80.2365C7.14906 81.3449 8.11095 82.446 9.0702 83.5498C9.14567 83.6365 9.2218 83.7226 9.29528 83.806V83.8047Z" fill="#231F20"/>
</g>
<g clip-path="url(#clip6_1_621)">
<path d="M9.29528 119.103C9.69778 118.424 10.0652 117.75 10.4836 117.109C11.844 115.023 13.5427 113.237 15.4354 111.632C17.4638 109.91 19.6722 108.453 22.0144 107.194C22.2256 107.081 22.448 107.003 22.6314 107.183C22.74 107.289 22.8115 107.477 22.8161 107.631C22.8194 107.745 22.7135 107.892 22.6155 107.976C19.9569 110.236 17.7292 112.87 15.8352 115.791C13.7592 118.994 12.1975 122.427 11.2614 126.135C11.2515 126.175 11.2356 126.214 11.227 126.255C11.182 126.466 11.0681 126.615 10.8517 126.67C10.6312 126.727 10.469 126.628 10.3267 126.474C9.6713 125.763 9.01459 125.053 8.35854 124.344C5.85815 121.638 3.35775 118.931 0.857358 116.225C0.8183 116.182 0.779241 116.139 0.739521 116.097C0.587922 115.936 0.55085 115.748 0.635586 115.548C0.722309 115.344 0.895092 115.256 1.11157 115.255C1.4995 115.252 1.8881 115.254 2.27604 115.254C3.37497 115.254 4.47323 115.259 5.57216 115.251C5.83365 115.249 6.02431 115.337 6.19511 115.535C7.14906 116.643 8.11095 117.744 9.0702 118.848C9.14567 118.935 9.2218 119.021 9.29528 119.104V119.103Z" fill="#231F20"/>
</g>
<g clip-path="url(#clip7_1_621)">
<path d="M132.839 119.103C133.242 118.424 133.609 117.75 134.028 117.109C135.388 115.023 137.087 113.237 138.979 111.632C141.008 109.91 143.216 108.453 145.558 107.194C145.77 107.081 145.992 107.003 146.175 107.183C146.284 107.289 146.355 107.477 146.36 107.631C146.363 107.745 146.257 107.892 146.159 107.976C143.501 110.236 141.273 112.87 139.379 115.791C137.303 118.994 135.741 122.427 134.805 126.135C134.795 126.175 134.78 126.214 134.771 126.255C134.726 126.466 134.612 126.615 134.396 126.67C134.175 126.727 134.013 126.628 133.871 126.474C133.215 125.763 132.559 125.054 131.902 124.344C129.402 121.638 126.902 118.931 124.401 116.225C124.362 116.182 124.323 116.139 124.283 116.097C124.132 115.936 124.095 115.748 124.18 115.548C124.266 115.344 124.439 115.256 124.656 115.255C125.043 115.252 125.432 115.254 125.82 115.254C126.919 115.254 128.017 115.259 129.116 115.251C129.378 115.249 129.568 115.337 129.739 115.535C130.693 116.643 131.655 117.744 132.614 118.848C132.69 118.935 132.766 119.021 132.839 119.104V119.103Z" fill="#231F20"/>
</g>
<g clip-path="url(#clip8_1_621)">
<path d="M132.839 155.027C133.242 154.348 133.609 153.673 134.028 153.033C135.388 150.947 137.087 149.161 138.979 147.555C141.008 145.834 143.216 144.377 145.558 143.118C145.77 143.005 145.992 142.927 146.175 143.107C146.284 143.213 146.355 143.401 146.36 143.555C146.363 143.669 146.257 143.816 146.159 143.9C143.501 146.16 141.273 148.794 139.379 151.715C137.303 154.918 135.741 158.351 134.805 162.059C134.795 162.099 134.78 162.138 134.771 162.178C134.726 162.39 134.612 162.539 134.396 162.594C134.175 162.651 134.013 162.552 133.871 162.398C133.215 161.687 132.559 160.977 131.902 160.268C129.402 157.561 126.902 154.855 124.401 152.149C124.362 152.106 124.323 152.063 124.283 152.021C124.132 151.86 124.095 151.672 124.18 151.472C124.266 151.268 124.439 151.18 124.656 151.179C125.043 151.176 125.432 151.178 125.82 151.178C126.919 151.178 128.017 151.183 129.116 151.175C129.378 151.173 129.568 151.261 129.739 151.459C130.693 152.567 131.655 153.668 132.614 154.772C132.69 154.859 132.766 154.945 132.839 155.028V155.027Z" fill="#231F20"/>
</g>
<g clip-path="url(#clip9_1_621)">
<path d="M9.29504 155.382C9.69754 154.702 10.065 154.028 10.4833 153.387C11.8438 151.302 13.5425 149.516 15.4351 147.91C17.4635 146.189 19.672 144.731 22.0142 143.473C22.2253 143.36 22.4478 143.282 22.6311 143.461C22.7397 143.567 22.8112 143.756 22.8158 143.91C22.8192 144.024 22.7132 144.171 22.6153 144.255C19.9566 146.515 17.729 149.148 15.835 152.07C13.7589 155.272 12.1973 158.706 11.2612 162.414C11.2513 162.454 11.2354 162.493 11.2268 162.533C11.1818 162.745 11.0679 162.894 10.8514 162.949C10.631 163.005 10.4688 162.907 10.3264 162.752C9.67106 162.042 9.01435 161.332 8.3583 160.622C5.8579 157.916 3.35751 155.21 0.857114 152.503C0.818056 152.461 0.778997 152.418 0.739277 152.376C0.587678 152.215 0.550605 152.027 0.635342 151.827C0.722065 151.623 0.894848 151.535 1.11132 151.533C1.49926 151.531 1.88786 151.533 2.27579 151.533C3.37472 151.533 4.47299 151.537 5.57192 151.529C5.83341 151.527 6.02407 151.616 6.19487 151.814C7.14882 152.922 8.11071 154.023 9.06996 155.127C9.14543 155.214 9.22156 155.3 9.29504 155.383V155.382Z" fill="#231F20"/>
</g>
<g clip-path="url(#clip10_1_621)">
<path d="M9.29528 190.68C9.69778 190.001 10.0652 189.327 10.4836 188.686C11.844 186.6 13.5427 184.814 15.4354 183.209C17.4638 181.487 19.6722 180.03 22.0144 178.771C22.2256 178.658 22.448 178.58 22.6314 178.76C22.74 178.866 22.8115 179.054 22.8161 179.208C22.8194 179.322 22.7135 179.469 22.6155 179.553C19.9569 181.813 17.7292 184.447 15.8352 187.368C13.7592 190.571 12.1975 194.004 11.2614 197.712C11.2515 197.752 11.2356 197.791 11.227 197.832C11.182 198.043 11.0681 198.192 10.8517 198.247C10.6312 198.304 10.469 198.205 10.3267 198.051C9.6713 197.34 9.01459 196.631 8.35854 195.921C5.85815 193.215 3.35775 190.508 0.857358 187.802C0.8183 187.759 0.779241 187.716 0.739521 187.674C0.587922 187.513 0.55085 187.325 0.635586 187.125C0.722309 186.921 0.895092 186.833 1.11157 186.832C1.4995 186.829 1.8881 186.831 2.27604 186.831C3.37497 186.831 4.47323 186.836 5.57216 186.828C5.83365 186.826 6.02431 186.914 6.19511 187.112C7.14906 188.22 8.11095 189.321 9.0702 190.425C9.14567 190.512 9.2218 190.598 9.29528 190.681V190.68Z" fill="#231F20"/>
</g>
<g clip-path="url(#clip11_1_621)">
<path d="M9.29528 225.978C9.69778 225.299 10.0652 224.625 10.4836 223.984C11.844 221.898 13.5427 220.113 15.4354 218.507C17.4638 216.785 19.6722 215.328 22.0144 214.069C22.2256 213.956 22.448 213.879 22.6314 214.058C22.74 214.164 22.8115 214.353 22.8161 214.506C22.8194 214.62 22.7135 214.767 22.6155 214.851C19.9569 217.111 17.7292 219.745 15.8352 222.666C13.7592 225.869 12.1975 229.302 11.2614 233.011C11.2515 233.051 11.2356 233.09 11.227 233.13C11.182 233.341 11.0681 233.49 10.8517 233.546C10.6312 233.602 10.469 233.503 10.3267 233.349C9.6713 232.639 9.01459 231.929 8.35854 231.219C5.85815 228.513 3.35775 225.806 0.857358 223.1C0.8183 223.058 0.779241 223.015 0.739521 222.972C0.587922 222.811 0.55085 222.623 0.635586 222.423C0.722309 222.22 0.895092 222.131 1.11157 222.13C1.4995 222.127 1.8881 222.129 2.27604 222.129C3.37497 222.129 4.47323 222.134 5.57216 222.126C5.83365 222.124 6.02431 222.212 6.19511 222.41C7.14906 223.519 8.11095 224.62 9.0702 225.723C9.14567 225.81 9.2218 225.896 9.29528 225.98V225.978Z" fill="#231F20"/>
</g>
<g clip-path="url(#clip12_1_621)">
<path d="M9.29528 261.277C9.69778 260.597 10.0652 259.923 10.4836 259.282C11.844 257.197 13.5427 255.411 15.4354 253.805C17.4638 252.084 19.6722 250.626 22.0144 249.368C22.2256 249.255 22.448 249.177 22.6314 249.356C22.74 249.462 22.8115 249.651 22.8161 249.805C22.8194 249.919 22.7135 250.066 22.6155 250.15C19.9569 252.41 17.7292 255.043 15.8352 257.965C13.7592 261.167 12.1975 264.601 11.2614 268.309C11.2515 268.349 11.2356 268.388 11.227 268.428C11.182 268.64 11.0681 268.789 10.8517 268.844C10.6312 268.9 10.469 268.802 10.3267 268.648C9.6713 267.937 9.01459 267.227 8.35854 266.517C5.85815 263.811 3.35775 261.105 0.857358 258.398C0.8183 258.356 0.779241 258.313 0.739521 258.271C0.587922 258.11 0.55085 257.922 0.635586 257.722C0.722309 257.518 0.895092 257.43 1.11157 257.428C1.4995 257.426 1.8881 257.428 2.27604 257.428C3.37497 257.428 4.47323 257.432 5.57216 257.424C5.83365 257.423 6.02431 257.511 6.19511 257.709C7.14906 258.817 8.11095 259.918 9.0702 261.022C9.14567 261.109 9.2218 261.195 9.29528 261.278V261.277Z" fill="#231F20"/>
</g>
<g clip-path="url(#clip13_1_621)">
<path d="M251.481 261.277C251.883 260.597 252.251 259.923 252.669 259.282C254.03 257.197 255.728 255.411 257.621 253.805C259.649 252.084 261.858 250.626 264.2 249.368C264.411 249.255 264.634 249.177 264.817 249.356C264.926 249.462 264.997 249.651 265.002 249.805C265.005 249.919 264.899 250.066 264.801 250.15C262.142 252.41 259.915 255.043 258.021 257.965C255.945 261.167 254.383 264.601 253.447 268.309C253.437 268.349 253.421 268.388 253.413 268.428C253.368 268.64 253.254 268.789 253.037 268.844C252.817 268.9 252.655 268.802 252.512 268.648C251.857 267.937 251.2 267.227 250.544 266.517C248.044 263.811 245.543 261.105 243.043 258.398C243.004 258.356 242.965 258.313 242.925 258.271C242.773 258.11 242.736 257.922 242.821 257.722C242.908 257.518 243.081 257.43 243.297 257.428C243.685 257.426 244.074 257.428 244.462 257.428C245.561 257.428 246.659 257.432 247.758 257.424C248.019 257.423 248.21 257.511 248.381 257.709C249.335 258.817 250.297 259.918 251.256 261.022C251.331 261.109 251.407 261.195 251.481 261.278V261.277Z" fill="#231F20"/>
</g>
<g clip-path="url(#clip14_1_621)">
<path d="M251.481 225.978C251.883 225.299 252.251 224.625 252.669 223.984C254.03 221.898 255.728 220.113 257.621 218.507C259.649 216.785 261.858 215.328 264.2 214.069C264.411 213.956 264.634 213.879 264.817 214.058C264.926 214.164 264.997 214.353 265.002 214.506C265.005 214.62 264.899 214.767 264.801 214.851C262.142 217.111 259.915 219.745 258.021 222.666C255.945 225.869 254.383 229.302 253.447 233.011C253.437 233.051 253.421 233.09 253.413 233.13C253.368 233.341 253.254 233.49 253.037 233.546C252.817 233.602 252.655 233.503 252.512 233.349C251.857 232.639 251.2 231.929 250.544 231.219C248.044 228.513 245.543 225.806 243.043 223.1C243.004 223.058 242.965 223.015 242.925 222.972C242.773 222.811 242.736 222.623 242.821 222.423C242.908 222.22 243.081 222.131 243.297 222.13C243.685 222.127 244.074 222.129 244.462 222.129C245.561 222.129 246.659 222.134 247.758 222.126C248.019 222.124 248.21 222.212 248.381 222.41C249.335 223.519 250.297 224.62 251.256 225.723C251.331 225.81 251.407 225.896 251.481 225.98V225.978Z" fill="#231F20"/>
</g>
<g clip-path="url(#clip15_1_621)">
<path d="M9.29528 296.575C9.69778 295.896 10.0652 295.222 10.4836 294.581C11.844 292.495 13.5427 290.709 15.4354 289.104C17.4638 287.382 19.6722 285.925 22.0144 284.666C22.2256 284.553 22.448 284.475 22.6314 284.655C22.74 284.761 22.8115 284.949 22.8161 285.103C22.8194 285.217 22.7135 285.364 22.6155 285.448C19.9569 287.708 17.7292 290.342 15.8352 293.263C13.7592 296.466 12.1975 299.899 11.2614 303.607C11.2515 303.647 11.2356 303.686 11.227 303.727C11.182 303.938 11.0681 304.087 10.8517 304.142C10.6312 304.199 10.469 304.1 10.3267 303.946C9.6713 303.235 9.01459 302.526 8.35854 301.816C5.85815 299.11 3.35775 296.403 0.857358 293.697C0.8183 293.654 0.779241 293.611 0.739521 293.569C0.587922 293.408 0.55085 293.22 0.635586 293.02C0.722309 292.816 0.895092 292.728 1.11157 292.727C1.4995 292.724 1.8881 292.726 2.27604 292.726C3.37497 292.726 4.47323 292.731 5.57216 292.723C5.83365 292.721 6.02431 292.809 6.19511 293.007C7.14906 294.115 8.11095 295.216 9.0702 296.32C9.14567 296.407 9.2218 296.493 9.29528 296.576V296.575Z" fill="#231F20"/>
</g>
<g clip-path="url(#clip16_1_621)">
<path d="M133.82 296.575C134.222 295.896 134.59 295.222 135.008 294.581C136.369 292.495 138.067 290.709 139.96 289.104C141.988 287.382 144.197 285.925 146.539 284.666C146.75 284.553 146.973 284.475 147.156 284.655C147.265 284.761 147.336 284.949 147.341 285.103C147.344 285.217 147.238 285.364 147.14 285.448C144.482 287.708 142.254 290.342 140.36 293.263C138.284 296.466 136.722 299.899 135.786 303.607C135.776 303.647 135.76 303.686 135.752 303.727C135.707 303.938 135.593 304.087 135.376 304.142C135.156 304.199 134.994 304.1 134.851 303.946C134.196 303.235 133.539 302.526 132.883 301.816C130.383 299.11 127.882 296.403 125.382 293.697C125.343 293.654 125.304 293.611 125.264 293.569C125.113 293.408 125.076 293.22 125.16 293.02C125.247 292.816 125.42 292.728 125.636 292.727C126.024 292.724 126.413 292.726 126.801 292.726C127.9 292.726 128.998 292.731 130.097 292.723C130.358 292.721 130.549 292.809 130.72 293.007C131.674 294.115 132.636 295.216 133.595 296.32C133.67 296.407 133.746 296.493 133.82 296.576V296.575Z" fill="#231F20"/>
</g>
<g clip-path="url(#clip17_1_621)">
<path d="M9.29528 337.756C9.69778 337.077 10.0652 336.403 10.4836 335.762C11.844 333.676 13.5427 331.891 15.4354 330.285C17.4638 328.563 19.6722 327.106 22.0144 325.847C22.2256 325.734 22.448 325.657 22.6314 325.836C22.74 325.942 22.8115 326.131 22.8161 326.284C22.8194 326.398 22.7135 326.545 22.6155 326.629C19.9569 328.889 17.7292 331.523 15.8352 334.444C13.7592 337.647 12.1975 341.08 11.2614 344.789C11.2515 344.829 11.2356 344.868 11.227 344.908C11.182 345.119 11.0681 345.268 10.8517 345.324C10.6312 345.38 10.469 345.281 10.3267 345.127C9.6713 344.417 9.01459 343.707 8.35854 342.997C5.85815 340.291 3.35775 337.584 0.857358 334.878C0.8183 334.836 0.779241 334.793 0.739521 334.75C0.587922 334.589 0.55085 334.401 0.635586 334.201C0.722309 333.998 0.895092 333.909 1.11157 333.908C1.4995 333.905 1.8881 333.907 2.27604 333.907C3.37497 333.907 4.47323 333.912 5.57216 333.904C5.83365 333.902 6.02431 333.99 6.19511 334.188C7.14906 335.297 8.11095 336.398 9.0702 337.501C9.14567 337.588 9.2218 337.674 9.29528 337.758V337.756Z" fill="#231F20"/>
</g>
<g clip-path="url(#clip18_1_621)">
<path d="M132.839 337.756C133.242 337.077 133.609 336.403 134.028 335.762C135.388 333.676 137.087 331.891 138.979 330.285C141.008 328.563 143.216 327.106 145.558 325.847C145.77 325.734 145.992 325.657 146.175 325.836C146.284 325.942 146.355 326.131 146.36 326.284C146.363 326.398 146.257 326.545 146.159 326.629C143.501 328.889 141.273 331.523 139.379 334.444C137.303 337.647 135.741 341.08 134.805 344.789C134.795 344.829 134.78 344.868 134.771 344.908C134.726 345.119 134.612 345.268 134.396 345.324C134.175 345.38 134.013 345.281 133.871 345.127C133.215 344.417 132.559 343.707 131.902 342.997C129.402 340.291 126.902 337.584 124.401 334.878C124.362 334.836 124.323 334.793 124.283 334.75C124.132 334.589 124.095 334.401 124.18 334.201C124.266 333.998 124.439 333.909 124.656 333.908C125.043 333.905 125.432 333.907 125.82 333.907C126.919 333.907 128.017 333.912 129.116 333.904C129.378 333.902 129.568 333.99 129.739 334.188C130.693 335.297 131.655 336.398 132.614 337.501C132.69 337.588 132.766 337.674 132.839 337.758V337.756Z" fill="#231F20"/>
</g>
<g clip-path="url(#clip19_1_621)">
<path d="M9.29528 374.035C9.69778 373.356 10.0652 372.682 10.4836 372.041C11.844 369.955 13.5427 368.169 15.4354 366.564C17.4638 364.842 19.6722 363.385 22.0144 362.126C22.2256 362.013 22.448 361.936 22.6314 362.115C22.74 362.221 22.8115 362.41 22.8161 362.563C22.8194 362.677 22.7135 362.824 22.6155 362.908C19.9569 365.168 17.7292 367.802 15.8352 370.723C13.7592 373.926 12.1975 377.359 11.2614 381.068C11.2515 381.107 11.2356 381.146 11.227 381.187C11.182 381.398 11.0681 381.547 10.8517 381.603C10.6312 381.659 10.469 381.56 10.3267 381.406C9.6713 380.696 9.01459 379.986 8.35854 379.276C5.85815 376.57 3.35775 373.863 0.857358 371.157C0.8183 371.115 0.779241 371.072 0.739521 371.029C0.587922 370.868 0.55085 370.68 0.635586 370.48C0.722309 370.276 0.895092 370.188 1.11157 370.187C1.4995 370.184 1.8881 370.186 2.27604 370.186C3.37497 370.186 4.47323 370.191 5.57216 370.183C5.83365 370.181 6.02431 370.269 6.19511 370.467C7.14906 371.575 8.11095 372.677 9.0702 373.78C9.14567 373.867 9.2218 373.953 9.29528 374.037V374.035Z" fill="#231F20"/>
</g>
<g clip-path="url(#clip20_1_621)">
<path d="M9.29528 374.035C9.69778 373.356 10.0652 372.682 10.4836 372.041C11.844 369.955 13.5427 368.169 15.4354 366.564C17.4638 364.842 19.6722 363.385 22.0144 362.126C22.2256 362.013 22.448 361.936 22.6314 362.115C22.74 362.221 22.8115 362.41 22.8161 362.563C22.8194 362.677 22.7135 362.824 22.6155 362.908C19.9569 365.168 17.7292 367.802 15.8352 370.723C13.7592 373.926 12.1975 377.359 11.2614 381.068C11.2515 381.107 11.2356 381.146 11.227 381.187C11.182 381.398 11.0681 381.547 10.8517 381.603C10.6312 381.659 10.469 381.56 10.3267 381.406C9.6713 380.696 9.01459 379.986 8.35854 379.276C5.85815 376.57 3.35775 373.863 0.857358 371.157C0.8183 371.115 0.779241 371.072 0.739521 371.029C0.587922 370.868 0.55085 370.68 0.635586 370.48C0.722309 370.276 0.895092 370.188 1.11157 370.187C1.4995 370.184 1.8881 370.186 2.27604 370.186C3.37497 370.186 4.47323 370.191 5.57216 370.183C5.83365 370.181 6.02431 370.269 6.19511 370.467C7.14906 371.575 8.11095 372.677 9.0702 373.78C9.14567 373.867 9.2218 373.953 9.29528 374.037V374.035Z" fill="#231F20"/>
</g>
<defs>
<clipPath id="clip0_1_621">
<rect width="22.2249" height="19.6102" fill="white" transform="translate(0.591309 0.200684)"/>
</clipPath>
<clipPath id="clip1_1_621">
<rect width="22.2249" height="19.6102" fill="white" transform="translate(0.591309 36.4795)"/>
</clipPath>
<clipPath id="clip2_1_621">
<rect width="22.2249" height="19.6102" fill="white" transform="translate(242.777 36.4795)"/>
</clipPath>
<clipPath id="clip3_1_621">
<rect width="22.2249" height="19.6102" fill="white" transform="translate(242.777 71.7778)"/>
</clipPath>
<clipPath id="clip4_1_621">
<rect width="22.2249" height="19.6102" fill="white" transform="translate(242.777 107.076)"/>
</clipPath>
<clipPath id="clip5_1_621">
<rect width="22.2249" height="19.6102" fill="white" transform="translate(0.591309 71.7778)"/>
</clipPath>
<clipPath id="clip6_1_621">
<rect width="22.2249" height="19.6102" fill="white" transform="translate(0.591309 107.076)"/>
</clipPath>
<clipPath id="clip7_1_621">
<rect width="22.2249" height="19.6102" fill="white" transform="translate(124.135 107.076)"/>
</clipPath>
<clipPath id="clip8_1_621">
<rect width="22.2249" height="19.6102" fill="white" transform="translate(124.135 143)"/>
</clipPath>
<clipPath id="clip9_1_621">
<rect width="22.2249" height="19.6102" fill="white" transform="translate(0.591309 143.355)"/>
</clipPath>
<clipPath id="clip10_1_621">
<rect width="22.2249" height="19.6102" fill="white" transform="translate(0.591309 178.653)"/>
</clipPath>
<clipPath id="clip11_1_621">
<rect width="22.2249" height="19.6102" fill="white" transform="translate(0.591309 213.952)"/>
</clipPath>
<clipPath id="clip12_1_621">
<rect width="22.2249" height="19.6102" fill="white" transform="translate(0.591309 249.25)"/>
</clipPath>
<clipPath id="clip13_1_621">
<rect width="22.2249" height="19.6102" fill="white" transform="translate(242.777 249.25)"/>
</clipPath>
<clipPath id="clip14_1_621">
<rect width="22.2249" height="19.6102" fill="white" transform="translate(242.777 213.952)"/>
</clipPath>
<clipPath id="clip15_1_621">
<rect width="22.2249" height="19.6102" fill="white" transform="translate(0.591309 284.548)"/>
</clipPath>
<clipPath id="clip16_1_621">
<rect width="22.2249" height="19.6102" fill="white" transform="translate(125.116 284.548)"/>
</clipPath>
<clipPath id="clip17_1_621">
<rect width="22.2249" height="19.6102" fill="white" transform="translate(0.591309 325.729)"/>
</clipPath>
<clipPath id="clip18_1_621">
<rect width="22.2249" height="19.6102" fill="white" transform="translate(124.135 325.729)"/>
</clipPath>
<clipPath id="clip19_1_621">
<rect width="22.2249" height="19.6102" fill="white" transform="translate(0.591309 362.008)"/>
</clipPath>
<clipPath id="clip20_1_621">
<rect width="22.2249" height="19.6102" fill="white" transform="translate(0.591309 362.008)"/>
</clipPath>
</defs>
</svg>
