<svg width="22" height="22" viewBox="0 0 22 22" fill="none" xmlns="http://www.w3.org/2000/svg">
<g clip-path="url(#clip0_1_690)">
<path d="M3.58762 0.768555C3.60068 0.768555 3.61375 0.768555 3.6274 0.768555C3.64818 0.793493 3.66659 0.820806 3.68975 0.84337C6.05889 3.2131 8.42803 5.58224 10.7978 7.95138C10.8334 7.98701 10.8744 8.01788 10.9159 8.05351C10.9628 8.00898 11.002 7.97394 11.0388 7.93713C13.3985 5.57749 15.7587 3.21785 18.1183 0.85762C18.1457 0.830307 18.1688 0.798243 18.1943 0.768555C18.2074 0.768555 18.2205 0.768555 18.2341 0.768555C18.2608 0.804181 18.284 0.843963 18.3155 0.875433C19.1889 1.75006 20.0629 2.62468 20.9381 3.49811C20.9696 3.52958 21.0088 3.55274 21.045 3.57946V3.61924C21.0201 3.64002 20.9928 3.65843 20.9702 3.68159C18.6005 6.05073 16.2313 8.41987 13.8622 10.7896C13.8266 10.8252 13.7957 10.8662 13.7595 10.9078C13.804 10.9547 13.839 10.9939 13.8759 11.0307C16.2355 13.3909 18.5957 15.7511 20.956 18.1108C20.9833 18.1381 21.0153 18.1612 21.045 18.1868V18.2266C21.0094 18.2533 20.9696 18.2764 20.9381 18.3079C20.0635 19.1813 19.1889 20.0554 18.3155 20.9306C18.284 20.9621 18.2608 21.0012 18.2341 21.0375H18.1943C18.1736 21.0125 18.1552 20.9852 18.132 20.9626C15.7629 18.5929 13.3937 16.2238 11.024 13.8546C10.9884 13.819 10.9474 13.7881 10.9058 13.7525C10.8589 13.797 10.8197 13.8321 10.7829 13.8689C8.42268 16.2285 6.06245 18.5888 3.70281 20.949C3.6755 20.9763 3.65234 21.0084 3.62681 21.0381H3.58703C3.56031 21.0024 3.53715 20.9626 3.50568 20.9312C2.63225 20.0566 1.75822 19.1819 0.883001 18.3085C0.851532 18.277 0.812343 18.2539 0.776123 18.2272C0.776123 18.2141 0.776123 18.201 0.776123 18.1874C0.801061 18.1666 0.828375 18.1482 0.850938 18.125C3.22067 15.7559 5.58981 13.3867 7.95895 11.017C7.99457 10.9814 8.02545 10.9404 8.06167 10.8989C8.01714 10.8519 7.98211 10.8128 7.94529 10.7759C5.58625 8.41452 3.22661 6.05429 0.866376 3.69465C0.839063 3.66734 0.806999 3.64418 0.777311 3.61865C0.777311 3.60558 0.777311 3.59252 0.777311 3.57886C0.812937 3.55214 0.852719 3.52899 0.884189 3.49752C1.75881 2.62408 2.63284 1.75006 3.50627 0.875433C3.53774 0.843963 3.5609 0.804181 3.58762 0.768555Z" fill="black"/>
</g>
<defs>
<clipPath id="clip0_1_690">
<rect width="20.2671" height="20.2671" fill="white" transform="translate(0.777344 0.768555)"/>
</clipPath>
</defs>
</svg>
