<svg width="21" height="22" viewBox="0 0 21 22" fill="none" xmlns="http://www.w3.org/2000/svg">
<g clip-path="url(#clip0_1_696)">
<path d="M3.30832 0.95166C3.32139 0.95166 3.33445 0.95166 3.34811 0.95166C3.36889 0.976598 3.38729 1.00391 3.41045 1.02648C5.77959 3.39621 8.14873 5.76535 10.5185 8.13449C10.5541 8.17011 10.5951 8.20099 10.6366 8.23661C10.6835 8.19208 10.7227 8.15705 10.7595 8.12024C13.1192 5.7606 15.4794 3.40096 17.839 1.04073C17.8664 1.01341 17.8895 0.981349 17.915 0.95166C17.9281 0.95166 17.9412 0.95166 17.9548 0.95166C17.9815 0.987286 18.0047 1.02707 18.0362 1.05854C18.9096 1.93316 19.7836 2.80778 20.6589 3.68122C20.6903 3.71269 20.7295 3.73584 20.7657 3.76256V3.80235C20.7408 3.82313 20.7135 3.84154 20.6909 3.86469C18.3212 6.23383 15.952 8.60297 13.5829 10.9727C13.5473 11.0083 13.5164 11.0493 13.4802 11.0909C13.5247 11.1378 13.5597 11.177 13.5966 11.2138C15.9562 13.574 18.3164 15.9342 20.6767 18.2939C20.704 18.3212 20.736 18.3443 20.7657 18.3699V18.4097C20.7301 18.4364 20.6903 18.4595 20.6589 18.491C19.7842 19.3644 18.9096 20.2385 18.0362 21.1137C18.0047 21.1452 17.9815 21.1843 17.9548 21.2206H17.915C17.8943 21.1956 17.8759 21.1683 17.8527 21.1458C15.4836 18.776 13.1144 16.4069 10.7447 14.0377C10.7091 14.0021 10.6681 13.9712 10.6265 13.9356C10.5796 13.9801 10.5404 14.0152 10.5036 14.052C8.14339 16.4116 5.78315 18.7719 3.42351 21.1321C3.3962 21.1594 3.37304 21.1915 3.34751 21.2212H3.30773C3.28101 21.1855 3.25785 21.1458 3.22638 21.1143C2.35295 20.2397 1.47892 19.365 0.603705 18.4916C0.572235 18.4601 0.533046 18.437 0.496826 18.4103C0.496826 18.3972 0.496826 18.3841 0.496826 18.3705C0.521764 18.3497 0.549078 18.3313 0.571641 18.3081C2.94137 15.939 5.31051 13.5699 7.67965 11.2001C7.71528 11.1645 7.74615 11.1235 7.78237 11.082C7.73784 11.035 7.70281 10.9959 7.666 10.959C5.30695 8.59763 2.94731 6.23739 0.587079 3.87775C0.559766 3.85044 0.527702 3.82728 0.498014 3.80175C0.498014 3.78869 0.498014 3.77563 0.498014 3.76197C0.53364 3.73525 0.573422 3.71209 0.604892 3.68062C1.47951 2.80719 2.35354 1.93316 3.22698 1.05854C3.25845 1.02707 3.2816 0.987286 3.30832 0.95166Z" fill="black"/>
</g>
<defs>
<clipPath id="clip0_1_696">
<rect width="20.2671" height="20.2671" fill="white" transform="translate(0.498047 0.95166)"/>
</clipPath>
</defs>
</svg>
