<svg width="23" height="20" viewBox="0 0 23 20" fill="none" xmlns="http://www.w3.org/2000/svg">
<g clip-path="url(#clip0_1_664)">
<path d="M8.83972 12.0352C9.24222 11.3559 9.60963 10.6818 10.028 10.0409C11.3884 7.9552 13.0871 6.16945 14.9798 4.5638C17.0082 2.84227 19.2167 1.38493 21.5588 0.126231C21.77 0.0130076 21.9924 -0.064461 22.1758 0.114975C22.2844 0.220915 22.3559 0.409621 22.3605 0.563234C22.3638 0.67712 22.2579 0.824111 22.1599 0.908201C19.5013 3.16804 17.2737 5.80197 15.3797 8.72327C13.3036 11.926 11.7419 15.3591 10.8059 19.0677C10.7959 19.1074 10.7801 19.1464 10.7714 19.1868C10.7264 19.3981 10.6126 19.547 10.3961 19.6027C10.1756 19.6589 10.0135 19.5603 9.87112 19.406C9.21574 18.6955 8.55903 17.9857 7.90298 17.2759C5.40258 14.5698 2.90219 11.8631 0.401792 9.15696C0.362733 9.11458 0.323675 9.07155 0.283955 9.02917C0.132355 8.86827 0.0952831 8.68023 0.18002 8.48027C0.266743 8.27633 0.439526 8.18827 0.656002 8.18695C1.04394 8.1843 1.43253 8.18629 1.82047 8.18629C2.9194 8.18629 4.01767 8.19092 5.1166 8.18297C5.37809 8.18099 5.56875 8.26905 5.73954 8.46703C6.69349 9.57542 7.65539 10.6765 8.61463 11.7803C8.6901 11.867 8.76623 11.9531 8.83972 12.0365V12.0352Z" fill="#231F20"/>
</g>
<defs>
<clipPath id="clip0_1_664">
<rect width="22.2249" height="19.6102" fill="white" transform="translate(0.135742 0.00830078)"/>
</clipPath>
</defs>
</svg>
