<svg width="75" height="61" viewBox="0 0 75 61" fill="none" xmlns="http://www.w3.org/2000/svg">
<g clip-path="url(#clip0_1_730)">
<path d="M0 33.069C0.367973 32.1343 1.09413 31.6414 2.06104 31.3342C3.72671 30.8034 5.36106 30.1796 7.01302 29.6051C8.49666 29.0894 9.60254 29.5862 10.1447 31.029C13.2666 39.3237 16.3846 47.6204 19.4967 55.917C20.0213 57.3162 19.5104 58.4007 18.0777 58.9202C16.3435 59.5496 14.5995 60.1544 12.8575 60.7611C11.1899 61.3432 10.1408 60.8654 9.53207 59.252C6.40822 50.9572 3.28436 42.6644 0.160499 34.3696C0.119396 34.2616 0.0548045 34.163 0 34.0606C0 33.7288 0 33.3989 0 33.0671L0 33.069Z" fill="#5C9B4A"/>
<path d="M23.0491 52.9043C21.9687 50.0244 20.9215 47.2317 19.8724 44.4389C18.0815 39.6707 16.3004 34.8967 14.4781 30.1398C14.2667 29.5861 14.3802 29.3492 14.8872 29.1065C17.0246 28.0808 19.0719 26.8257 21.2934 26.0275C26.0908 24.3041 30.9018 24.6226 35.3625 27.0399C39.2869 29.1671 43.4149 30.8564 47.4352 32.7713C48.3532 33.2093 49.3025 33.5904 50.2067 34.0492C52.8941 35.4162 53.9354 38.4667 52.6318 41.0812C51.3498 43.6521 48.2259 44.8105 45.4975 43.6199C41.4987 41.8737 37.543 40.0347 33.552 38.2658C33.0862 38.0591 32.5147 37.9359 32.0116 37.9776C31.0584 38.0572 30.3264 38.8099 30.1874 39.665C30.025 40.6641 30.4771 41.5457 31.4577 41.9951C33.7713 43.0568 36.0965 44.092 38.4159 45.1385C40.1168 45.9064 41.8138 46.6837 43.5206 47.4402C49.5843 50.1325 56.4877 46.5112 57.4625 40.1162C57.5427 39.5948 57.7169 39.3161 58.2728 39.1265C61.5591 38.0041 64.8141 36.8002 68.1024 35.6835C71.6275 34.4853 75.1839 36.9879 74.9941 40.5485C74.8786 42.7098 73.7101 44.2475 71.602 45.0001C65.3367 47.2374 59.0596 49.4385 52.7865 51.653C51.2069 52.2104 49.6019 52.7109 48.0537 53.3385C44.9435 54.5974 41.804 54.7187 38.5216 54.021C34.6188 53.1906 30.6709 52.5517 26.7387 51.8502C26.447 51.799 26.1084 51.8653 25.8207 51.9564C24.9184 52.2407 24.0297 52.5649 23.0511 52.9043H23.0491Z" fill="#5C9B4A"/>
<path d="M23.5151 12.7748C26.6879 12.7748 29.8352 12.7748 32.9845 12.7748C36.8893 12.7748 40.7942 12.7767 44.7009 12.7748C46.1807 12.7748 47.1808 11.9046 47.175 10.6381C47.1691 9.37353 46.1709 8.52035 44.6814 8.52035C37.9933 8.51846 31.3051 8.52035 24.619 8.52035C24.3548 8.52035 24.0925 8.52035 23.5816 8.52035C24.2412 7.96863 24.7286 7.53636 25.2414 7.13632C29.1599 4.07248 33.4543 1.69686 38.3984 0.593424C45.9693 -1.09586 52.4754 0.883503 57.9754 6.11061C60.7763 8.77251 62.9274 11.8819 64.5089 15.3552C65.1117 16.6786 64.5128 17.9963 63.1603 18.3527C62.7825 18.4513 62.3108 18.4665 61.9487 18.3432C58.7622 17.255 55.6716 17.6152 52.5908 18.7736C49.8173 19.8164 46.9988 20.7283 44.0237 21.0923C35.6876 22.1105 28.9701 19.2476 23.6188 13.1104C23.5718 13.0573 23.5386 12.9929 23.5033 12.9303C23.4955 12.9151 23.5053 12.8886 23.5151 12.7824V12.7748Z" fill="#5C9B4A"/>
<path d="M67.2451 31.4518C63.7885 32.6709 60.3652 33.8767 56.8655 35.1109C55.9847 33.2321 54.7008 31.6964 52.8374 30.5834C52.9842 30.4905 53.0684 30.4128 53.1682 30.3768C55.6363 29.5046 58.0928 28.6003 60.5785 27.7793C63.536 26.801 66.5072 28.4353 67.2451 31.4537V31.4518Z" fill="#5C9B4A"/>
<path d="M23.6071 8.51846C21.8142 9.91198 21.9903 11.2846 23.3644 12.7767C22.5169 12.7767 21.8435 12.7767 21.1702 12.7767C19.3871 12.7767 17.606 12.7843 15.8229 12.7748C14.4645 12.7673 13.4819 11.8667 13.48 10.6514C13.478 9.43799 14.4606 8.52794 15.815 8.52225C18.3263 8.51277 20.8375 8.52036 23.6051 8.52036L23.6071 8.51846Z" fill="#5C9B4A"/>
</g>
<defs>
<clipPath id="clip0_1_730">
<rect width="75" height="61" fill="white"/>
</clipPath>
</defs>
</svg>
