<svg width="19" height="19" viewBox="0 0 19 19" fill="none" xmlns="http://www.w3.org/2000/svg">
<g clip-path="url(#clip0_11_65)">
<path fill-rule="evenodd" clip-rule="evenodd" d="M5.124 0H13.876C16.6878 0 19 2.31778 19 5.1363V13.8637C19 16.6822 16.6878 19 13.876 19H5.124C2.31223 19 0 16.6822 0 13.8637V5.1363C0 2.31778 2.31223 0 5.124 0ZM14.6013 3.31838C15.1909 3.31838 15.6896 3.81824 15.6896 4.4093C15.6896 5.00037 15.1909 5.50023 14.6013 5.50023C13.9661 5.50023 13.5129 5.00037 13.5129 4.4093C13.5129 3.81824 13.9661 3.31838 14.6013 3.31838ZM9.47725 4.3181H9.52275C12.3345 4.3181 14.6922 6.68148 14.6922 9.5C14.6922 12.3632 12.3345 14.6819 9.52275 14.6819H9.47725C6.66549 14.6819 4.35326 12.3641 4.35326 9.5C4.35326 6.68148 6.66549 4.3181 9.47725 4.3181ZM9.47725 6.09042H9.52275C11.3818 6.09042 12.9233 7.6356 12.9233 9.49912C12.9233 11.4082 11.3818 12.9534 9.52275 12.9534H9.47725C7.6182 12.9534 6.07671 11.4082 6.07671 9.49912C6.07671 7.6356 7.6182 6.09042 9.47725 6.09042ZM5.16949 1.63639H13.8305C15.7806 1.63639 17.3675 3.22718 17.3675 5.1819V13.8181C17.3675 15.7728 15.7806 17.3636 13.8305 17.3636H5.16949C3.21945 17.3636 1.63247 15.7728 1.63247 13.8181V5.1819C1.63247 3.22718 3.21945 1.63639 5.16949 1.63639Z" fill="#231F20"/>
</g>
<defs>
<clipPath id="clip0_11_65">
<rect width="19" height="19" fill="white"/>
</clipPath>
</defs>
</svg>
