<svg width="27" height="17" viewBox="0 0 27 17" fill="none" xmlns="http://www.w3.org/2000/svg">
<g clip-path="url(#clip0_11_53)">
<path d="M15.8924 7.98609H8.16232V10.2473H13.3794C12.7662 13.0018 10.8563 14.6977 8.30305 14.6977C4.9557 14.6977 2.24162 11.9226 2.24162 8.5C2.24162 5.07739 4.9557 2.3023 8.30305 2.3023C9.89129 2.3023 11.3388 2.92926 12.4244 3.95707L14.1333 2.44619C12.6355 0.935308 10.5748 0 8.30305 0C3.71929 0 0 3.8029 0 8.5C0 13.1971 3.71929 17 8.31311 17C12.9069 17 15.9025 13.5671 15.9025 8.87001V7.99637L15.8924 7.98609Z" fill="#222221"/>
<path d="M26.9996 8.0786H23.813V4.82043H21.7725V8.0786H18.5859V10.1651H21.7725V13.4232H23.813V10.1651H26.9996V8.0786Z" fill="#222221"/>
</g>
<defs>
<clipPath id="clip0_11_53">
<rect width="27" height="17" fill="white"/>
</clipPath>
</defs>
</svg>
