<svg width="9" height="16" viewBox="0 0 9 16" fill="none" xmlns="http://www.w3.org/2000/svg">
<path d="M1.61417 12.1742C1.61417 12.9082 1.68199 13.4643 1.82442 13.8499C1.96684 14.2354 2.21778 14.5987 2.57724 14.9398C2.9367 15.2808 3.37754 15.5477 3.89299 15.7257C4.40844 15.911 4.99849 16 5.66315 16C6.2532 16 6.80256 15.9333 7.30445 15.8072C7.81311 15.6738 8.37604 15.4513 9 15.1325V12.6191C8.26752 13.1455 7.52826 13.4124 6.789 13.4124C6.37528 13.4124 6.00226 13.3086 5.67671 13.0936C5.43255 12.9379 5.263 12.7229 5.17483 12.4634C5.08666 12.1965 5.03919 11.6033 5.03919 10.6766V6.56905H8.51168V4.05561H5.03919V0H2.96383C2.86888 0.822984 2.69932 1.5051 2.45516 2.03892C2.211 2.57275 1.87867 3.03244 1.47174 3.41057C1.06481 3.78869 0.569706 4.08526 0 4.28545V6.56163H1.6006V12.1668L1.61417 12.1742Z" fill="#222221"/>
</svg>
