<svg width="20" height="15" viewBox="0 0 20 15" fill="none" xmlns="http://www.w3.org/2000/svg">
<path fill-rule="evenodd" clip-rule="evenodd" d="M9.86757 4.61349C9.07211 0.743308 14.1116 -1.55904 17.0821 1.23326C17.0821 1.23326 18.4082 0.890711 19.5755 0.204782C19.5755 0.204782 19.151 1.52723 17.7188 2.35972C17.7188 2.35972 19.3107 2.16374 20 1.77178C20 1.77178 19.3107 3.09423 18.0372 3.58418C18.7265 12.451 8.38186 17.8396 0 13.4309C0 13.4309 4.13787 13.6269 5.88844 11.7651C5.88844 11.7651 3.3424 11.9611 2.06893 9.12019C2.06893 9.12019 3.02404 9.46273 3.97914 9.0222C3.97914 9.0222 1.00862 8.58166 0.742857 5.29942C0.742857 5.29942 1.69796 5.98535 2.75918 5.73996C2.75918 5.73996 -0.529705 3.92756 1.32698 0.645318C1.32698 0.645318 4.82721 4.76006 9.86757 4.61349Z" fill="white"/>
</svg>
