<svg width="17" height="17" viewBox="0 0 17 17" fill="none" xmlns="http://www.w3.org/2000/svg">
<g clip-path="url(#clip0_2001_152)">
<path d="M8.51611 16.9937C9.80629 16.9937 11.0965 17.0083 12.3866 16.9907C14.8454 16.9563 16.5889 15.1591 16.9091 13.1477C16.9603 12.8256 16.9894 12.4966 16.9901 12.1707C16.997 9.66355 17.0092 7.1564 16.9894 4.65C16.9703 2.27827 15.3568 0.628762 13.5484 0.164361C13.1509 0.0626056 12.7482 0.00140027 12.3354 0.00140027C9.77571 0.0036955 7.21524 -0.00548593 4.65554 0.00446006C2.29302 0.013641 0.567189 1.66468 0.143756 3.58655C0.0711455 3.91783 0.0153501 4.26135 0.0145858 4.59874C0.00388532 7.19465 -0.0114011 9.79055 0.0145858 12.3865C0.0367511 14.5998 1.50272 16.2654 3.33479 16.7987C3.77427 16.9272 4.22522 16.996 4.68611 16.9953C5.96252 16.9922 7.23894 16.9945 8.51611 16.9945V16.9937ZM8.49166 1.47264C9.76196 1.47264 11.0315 1.47188 12.3018 1.47341C12.4654 1.47341 12.6304 1.47494 12.7925 1.49712C14.3448 1.71058 15.5173 3.02957 15.5234 4.59951C15.5333 7.20306 15.5303 9.80585 15.5234 12.4094C15.5211 13.2472 15.2093 13.9702 14.6269 14.5677C13.9772 15.2333 13.1769 15.5309 12.2483 15.5279C9.75584 15.5202 7.26339 15.5256 4.77171 15.524C4.58063 15.524 4.38726 15.524 4.2 15.4957C2.60181 15.2478 1.47444 13.9411 1.47138 12.3245C1.46679 9.77602 1.46756 7.22755 1.47444 4.67908C1.47444 4.41513 1.5073 4.14505 1.56845 3.88875C1.91086 2.45194 3.21556 1.46193 4.64178 1.47188C5.92507 1.48029 7.20913 1.47341 8.49318 1.47341L8.49166 1.47264Z" fill="white"/>
<path d="M3.91485 8.50072C3.91485 11.0354 5.98921 13.1279 8.50153 13.1256C11.0307 13.1233 13.1356 11.014 13.1333 8.48542C13.131 5.95608 11.0437 3.87201 8.50688 3.87048C5.87533 3.86895 3.88963 6.05095 3.91485 8.49996V8.50072ZM8.49312 11.545C6.81468 11.5419 5.43737 10.1701 5.43967 8.49843C5.44272 6.74104 6.87582 5.40752 8.49695 5.40599C10.183 5.40522 11.5749 6.82138 11.5588 8.5122C11.542 10.1892 10.1784 11.5473 8.49312 11.5442V11.545Z" fill="white"/>
<path d="M13.0446 14.017C13.5621 14.0231 14.0092 13.5863 14.0237 13.0607C14.0375 12.5397 13.5827 12.0753 13.0561 12.073C12.5241 12.0707 12.0946 12.4945 12.0854 13.0285C12.0762 13.571 12.5027 14.0101 13.0446 14.0163V14.017Z" fill="white"/>
</g>
<defs>
<clipPath id="clip0_2001_152">
<rect width="17" height="17" fill="white" transform="matrix(1 0 0 -1 0 17)"/>
</clipPath>
</defs>
</svg>
