<svg width="75" height="75" viewBox="0 0 75 75" fill="none" xmlns="http://www.w3.org/2000/svg">
<g clip-path="url(#clip0_1_115)">
<path d="M74.8124 37.422C74.8124 49.2364 74.8124 61.0528 74.8124 72.8673C74.8124 74.4513 74.4218 74.8341 72.8123 74.8282C70.5707 74.8203 68.3271 74.7987 66.0856 74.8164C65.5713 74.8203 65.3632 74.6849 65.1571 74.1667C64.7371 73.1126 64.1816 72.1057 63.6143 71.1203C63.2119 70.4235 62.6564 69.817 62.2403 69.1261C61.1764 67.3615 61.1745 65.5615 62.2521 63.8028C62.7408 63.0039 63.3297 62.2678 63.8616 61.4945C66.0051 58.3755 66.011 55.2153 63.8793 52.1002C63.4671 51.4976 63.0215 50.9186 62.6015 50.3219C61.0587 48.1254 61.0606 46.086 62.6015 43.8758C63.1373 43.1064 63.7223 42.3664 64.211 41.5675C65.9069 38.794 65.8971 35.9989 64.1953 33.2312C63.7183 32.4559 63.1511 31.7375 62.627 30.9897C61.0528 28.7442 61.0528 26.7126 62.6211 24.4789C63.1609 23.7114 63.7439 22.9694 64.2287 22.1705C65.9148 19.3911 65.8932 16.594 64.1796 13.8343C63.6575 12.9942 63.0313 12.2208 62.4798 11.3984C61.1058 9.35502 61.092 7.37842 62.4641 5.34293C63.5535 3.72946 64.8823 2.25535 65.3122 0.266976C65.3377 0.149205 65.6243 0.0157301 65.7892 0.0137672C68.3448 -0.00193567 70.9005 -0.00978711 73.4561 0.0137672C74.2569 0.0216187 74.7496 0.551591 74.8085 1.34851C74.8281 1.60761 74.8144 1.87063 74.8144 2.12973C74.8144 13.8932 74.8144 25.6566 74.8144 37.418L74.8124 37.422Z" fill="#5C9B4A"/>
<path d="M21.3893 37.4494C21.3893 42.2466 21.3893 47.0419 21.3893 51.8391C21.3893 52.4221 21.4266 53.0266 20.7749 53.3152C20.0938 53.6155 19.5953 53.2779 19.1085 52.8146C16.4468 50.2806 13.7636 47.7701 11.1137 45.2242C10.8704 44.9907 10.6976 44.5628 10.6957 44.2232C10.6682 39.687 10.6682 35.1528 10.6957 30.6166C10.6976 30.2771 10.8664 29.8452 11.1079 29.6136C13.7754 27.0501 16.4743 24.5161 19.1634 21.9742C19.24 21.9035 19.3067 21.7897 19.3951 21.77C19.8504 21.668 20.3824 21.4148 20.7475 21.56C21.0576 21.6856 21.3501 22.2784 21.3579 22.671C21.4109 25.3817 21.3854 28.0924 21.3854 30.8031C21.3854 33.0192 21.3854 35.2353 21.3854 37.4494H21.3893Z" fill="#5C9B4A"/>
<path d="M54.3417 34.7661C53.3976 33.7042 52.5006 32.6933 51.5603 31.6334C51.2168 32.0358 50.9067 32.4146 50.5809 32.7797C49.9704 33.4628 49.1735 33.5825 48.5847 33.0898C47.9703 32.5775 47.9428 31.812 48.5258 31.0799C48.9125 30.595 49.3129 30.122 49.7467 29.596C48.8889 28.6302 48.0606 27.6998 47.1832 26.7105C47.0654 26.9402 46.9869 27.1169 46.8868 27.2798C46.5649 27.7999 46.0545 28.116 45.5049 27.8785C45.0868 27.6979 44.5569 27.2601 44.4921 26.8695C44.2683 25.5112 44.1898 24.1235 44.127 22.7456C44.0877 21.9035 44.6884 21.3088 45.5128 21.4344C46.926 21.6483 48.3413 21.9133 49.7133 22.3079C50.0804 22.4138 50.5004 23.0596 50.5122 23.4679C50.524 23.8762 50.0725 24.3119 49.78 24.7006C49.6917 24.8164 49.4503 24.8164 49.1735 24.9028C49.5857 25.3758 49.9488 25.7978 50.3198 26.2159C50.681 26.6242 51.048 27.0285 51.4858 27.5192C52.4456 26.369 53.374 25.258 54.3476 24.0921C51.9627 21.4049 49.5975 18.7413 47.1812 16.0208C47.0791 16.2249 47.0104 16.3761 46.93 16.5213C46.6139 17.0847 46.133 17.3418 45.4951 17.224C44.8925 17.1122 44.5078 16.7294 44.4469 16.119C44.3154 14.796 44.1898 13.4711 44.125 12.1442C44.076 11.1588 44.761 10.5837 45.7365 10.7545C46.9162 10.9606 48.0881 11.2079 49.2618 11.4513C50.1235 11.6299 50.5495 12.0696 50.573 12.7684C50.5985 13.5083 50.2001 13.9323 49.1617 14.1796C49.3816 14.4446 49.5622 14.6782 49.7584 14.8981C52.0785 17.5106 54.4026 20.1212 56.7227 22.7338C57.708 23.8428 57.712 24.2354 56.7816 25.3542C55.6313 26.7341 54.483 28.116 53.2955 29.543C54.4909 30.8934 55.6647 32.2144 56.8346 33.5413C57.6727 34.4913 57.6845 34.9506 56.8758 35.9223C54.8089 38.4092 52.74 40.8942 50.6653 43.3733C50.0686 44.0858 49.4542 44.2624 48.8261 43.9405C48.0252 43.5303 47.8878 42.5508 48.5513 41.748C50.2786 39.6576 52.0216 37.5789 53.7568 35.4963C53.9393 35.2765 54.118 35.0527 54.3496 34.7681L54.3417 34.7661Z" fill="#5C9B4A"/>
<path d="M7.95351 44.0917C5.69033 44.0917 3.48015 44.1192 1.26997 44.076C0.504456 44.0603 0.0196298 43.5107 0.015704 42.7354C-0.00392457 39.1885 -0.00196171 35.6416 0.015704 32.0947C0.0196298 31.3174 0.504456 30.7658 1.26801 30.7521C3.47819 30.7089 5.68837 30.7364 7.95547 30.7364V44.0917H7.95351Z" fill="#5C9B4A"/>
<path d="M41.4164 37.2354C41.3575 42.6725 40.166 47.6582 37.5397 52.269C37.4357 52.4495 37.3356 52.634 37.2119 52.8009C36.7428 53.4447 35.9734 53.6174 35.357 53.2249C34.7289 52.8244 34.6092 52.1159 34.9527 51.366C35.7967 49.5249 36.7958 47.7289 37.3945 45.8072C39.7951 38.105 39.004 30.6893 35.0646 23.6289C34.5719 22.7456 34.6798 22.0095 35.3884 21.5875C36.0931 21.1674 36.8449 21.3991 37.3533 22.2529C39.6891 26.1727 40.9178 30.4419 41.3065 34.9683C41.3752 35.7731 41.385 36.5818 41.4144 37.2334L41.4164 37.2354Z" fill="#5C9B4A"/>
<path d="M36.0596 37.4043C36.0596 40.7333 35.4237 43.9347 34.0889 46.9811C33.9025 47.407 33.4647 47.8624 33.0427 48.0037C32.6973 48.1195 32.1221 47.8938 31.7924 47.6347C31.3193 47.2618 31.4037 46.6925 31.5686 46.1233C32.1398 44.1546 32.8425 42.1996 33.1664 40.1857C33.7906 36.2913 33.1899 32.4971 31.6393 28.8658C31.3998 28.3064 31.2565 27.7019 31.7296 27.2622C32.0338 26.9795 32.6109 26.7047 32.9446 26.8107C33.3921 26.9521 33.8848 27.3917 34.0772 27.8275C35.4198 30.8699 36.0596 34.0733 36.0577 37.4023L36.0596 37.4043Z" fill="#5C9B4A"/>
<path d="M30.7973 37.8381C30.6089 38.8627 30.3988 40.2484 30.0907 41.6146C29.8905 42.5057 29.1583 42.9219 28.4124 42.704C27.6881 42.494 27.3034 41.803 27.5409 40.959C28.2024 38.5898 28.2024 36.2364 27.5409 33.8672C27.3054 33.0232 27.698 32.3303 28.4222 32.1281C29.176 31.9181 29.8473 32.3401 30.1044 33.2253C30.2713 33.7985 30.4244 34.3815 30.5107 34.9723C30.6305 35.7947 30.6815 36.627 30.7993 37.84L30.7973 37.8381Z" fill="#5C9B4A"/>
</g>
<defs>
<clipPath id="clip0_1_115">
<rect width="74.8164" height="74.8282" fill="white"/>
</clipPath>
</defs>
</svg>
