<svg width="76" height="89" viewBox="0 0 76 89" fill="none" xmlns="http://www.w3.org/2000/svg">
<g clip-path="url(#clip0_1_104)">
<path d="M32.1111 53.7092C32.4479 62.3447 33.7403 70.6911 38.5093 78.1923C38.2667 78.3722 38.0417 78.5495 37.8059 78.7144C26.1696 86.8905 9.90893 80.4991 6.98863 66.5765C5.99202 61.8239 6.68597 57.2771 9.00366 53.0016C9.16045 52.7112 9.52583 52.4358 9.84622 52.3486C12.8974 51.5196 15.9022 51.6669 18.8525 52.8476C21.3529 53.8469 23.9133 54.6758 26.6427 54.5054C28.2869 54.4031 29.9175 54.065 31.5535 53.8305C31.7294 53.806 31.9012 53.7569 32.1111 53.7106V53.7092ZM18.8253 64.646C18.8389 62.9991 17.5723 61.6889 15.9377 61.6589C14.3385 61.6289 12.9737 62.9568 12.9465 64.5669C12.9192 66.1811 14.2294 67.5172 15.8586 67.5363C17.5123 67.5554 18.8116 66.2888 18.8266 64.646H18.8253ZM24.7967 71.9004C24.7954 71.3414 24.3073 70.8711 23.7374 70.8806C23.2112 70.8888 22.7408 71.3605 22.734 71.8868C22.7258 72.4567 23.1962 72.9406 23.7579 72.9393C24.3305 72.9393 24.7981 72.4716 24.7967 71.9004Z" fill="#5C9B4A"/>
<path d="M40.6336 81.0893C41.3521 81.7997 42.0133 82.4541 42.7141 83.1466C42.5955 83.2516 42.4605 83.3934 42.3051 83.5093C38.2055 86.5755 33.6219 88.3751 28.5025 88.7623C15.1907 89.7684 3.43455 80.9898 0.58514 67.9194C-2.10612 55.5687 4.69428 42.7723 16.4709 38.0865C17.0967 37.837 17.3094 37.5629 17.3067 36.8799C17.2794 28.1776 17.2835 19.4753 17.3012 10.7717C17.3012 10.2632 17.1471 10.0232 16.6918 9.80782C14.505 8.77576 13.3502 6.45942 13.8397 4.18262C14.355 1.7913 16.3305 0.0530277 18.7545 0.0325774C23.8439 -0.0110498 28.9333 -0.00968649 34.0227 0.0325774C36.4222 0.0516644 38.485 1.82402 38.9431 4.09809C39.4284 6.5085 38.2968 8.80575 36.0568 9.83099C35.581 10.0491 35.5197 10.3286 35.5211 10.7717C35.5279 19.5653 35.5306 28.359 35.5088 37.1512C35.5088 37.6747 35.7296 37.8479 36.1523 38.0142C39.7802 39.4403 42.9268 41.5835 45.6071 44.4152C45.7748 44.591 45.9262 44.7833 46.1716 45.0668C45.13 45.3709 44.1879 45.6613 43.2335 45.9067C43.0877 45.9435 42.8477 45.8085 42.7182 45.6844C39.9438 43.03 36.7153 41.1567 33.0397 40.0552C32.7289 39.9624 32.5571 39.837 32.5571 39.4553C32.5694 28.8675 32.5694 18.2783 32.5721 7.69053C32.5721 7.62372 32.5939 7.55828 32.6267 7.36878C33.0316 7.36878 33.4542 7.38241 33.8755 7.36605C35.1666 7.31561 36.1127 6.37626 36.1018 5.16833C36.0909 3.95903 35.1298 2.99651 33.8509 2.99378C28.8747 2.98015 23.8985 2.98151 18.9222 2.99378C17.6734 2.99787 16.7409 3.93177 16.7177 5.12334C16.6932 6.36671 17.5902 7.30334 18.8786 7.36196C19.304 7.38105 19.7307 7.36469 20.2515 7.36469V8.18134C20.2515 18.4965 20.2447 28.813 20.2665 39.1281C20.2665 39.7498 20.047 39.9597 19.4908 40.1479C10.8703 43.0614 5.43731 48.9306 3.48226 57.8305C0.777373 70.1484 8.99021 82.7485 21.3354 85.3457C28.2203 86.7936 34.5367 85.4398 40.2614 81.3429C40.3896 81.2516 40.5218 81.1657 40.6336 81.0907V81.0893Z" fill="#5C9B4A"/>
<path d="M34.2379 48.7794C41.8277 49.1788 48.684 47.1611 54.86 42.8474C61.0728 47.127 67.9168 49.1938 75.4861 48.7766C75.5189 48.9702 75.5516 49.0752 75.5516 49.1815C75.6157 54.5041 75.4057 59.8062 74.2673 65.0305C73.1534 70.1431 71.3511 74.9571 67.9836 79.0553C64.9474 82.7514 61.1532 85.2422 56.4115 86.217C54.5982 86.5892 52.8886 86.2184 51.2021 85.6608C46.0882 83.9716 42.373 80.5741 39.6286 76.0328C37.2959 72.1745 35.9912 67.9426 35.1732 63.5431C34.2897 58.7877 34.122 53.9819 34.1929 49.1611C34.1929 49.0725 34.2134 48.9852 34.2393 48.7766L34.2379 48.7794ZM36.1916 50.1495C36.1766 50.4045 36.1589 50.5599 36.1575 50.7167C36.1357 54.5804 36.1984 58.4401 36.7833 62.2711C37.4104 66.3802 38.4752 70.3558 40.4902 74.0218C42.9265 78.4541 46.3377 81.8107 51.1994 83.5012C52.6568 84.0084 54.1497 84.4256 55.7312 84.1897C58.7946 83.7344 61.5022 82.4678 63.8963 80.5359C67.8037 77.3825 70.0941 73.1847 71.5597 68.4771C72.9558 63.9957 73.4507 59.3767 73.5625 54.7086C73.5979 53.2157 73.5679 51.7215 73.5679 50.1509C72.7908 50.1509 72.0709 50.1427 71.3511 50.1509C65.5568 50.2218 60.3079 48.5217 55.5621 45.2415C55.0195 44.8665 54.6746 44.8979 54.1538 45.2592C49.4297 48.5353 44.2013 50.2191 38.4316 50.1523C37.7063 50.1441 36.981 50.1523 36.1902 50.1523L36.1916 50.1495Z" fill="#5C9B4A"/>
<path d="M26.9767 32.8322C25.3652 32.8404 24.0182 31.5179 23.9991 29.9078C23.9787 28.2772 25.3502 26.9043 26.9849 26.9193C28.6018 26.9343 29.9297 28.269 29.9311 29.8805C29.9324 31.4811 28.5882 32.824 26.9781 32.8322H26.9767Z" fill="#5C9B4A"/>
<path d="M29.1362 42.5639C29.1431 43.6914 28.1969 44.6689 27.0817 44.688C25.9133 44.7071 24.9412 43.765 24.9262 42.5966C24.9112 41.4064 25.8287 40.4671 27.0135 40.4602C28.2078 40.4534 29.1281 41.3655 29.1362 42.5625V42.5639Z" fill="#5C9B4A"/>
<path d="M25.2112 36.4587C25.2057 37.1554 24.629 37.7226 23.9446 37.7035C23.2848 37.6857 22.7462 37.1349 22.7367 36.4683C22.7271 35.7743 23.2861 35.1935 23.9692 35.1908C24.6536 35.1881 25.2166 35.7634 25.2098 36.4587H25.2112Z" fill="#5C9B4A"/>
<path d="M37.6477 51.6983C39.2482 51.6001 40.7752 51.5865 42.279 51.3997C46.6008 50.8626 50.59 49.3724 54.2356 46.9906C54.6882 46.6948 54.9786 46.6416 55.4694 46.9606C60.0271 49.9191 65.017 51.5251 70.4704 51.6138C70.9871 51.6219 71.5038 51.6138 72.0082 51.6138C72.0505 51.7474 72.0873 51.8101 72.0873 51.8728C72.18 57.7598 71.7356 63.5799 69.7778 69.1901C68.3613 73.2488 66.2331 76.8467 62.7961 79.5448C60.6706 81.2135 58.2888 82.3465 55.5962 82.7227C53.9452 82.9532 52.3991 82.4433 50.9008 81.8338C46.7099 80.1297 43.7909 77.0566 41.6818 73.1397C39.7404 69.535 38.647 65.6481 38.2012 61.6126C37.8535 58.4605 37.8044 55.2744 37.6245 52.1046C37.6177 51.9723 37.6381 51.8387 37.6463 51.6956L37.6477 51.6983Z" fill="#5C9B4A"/>
</g>
<defs>
<clipPath id="clip0_1_104">
<rect width="75.5625" height="88.8401" fill="white"/>
</clipPath>
</defs>
</svg>
